<?xml version="1.0" encoding="utf-8"?>
<!-- Generator: Adobe Illustrator 22.0.0, SVG Export Plug-In . SVG Version: 6.00 Build 0)  -->
<svg version="1.1"
	 id="svg2" inkscape:version="0.48.1 r9760" sodipodi:docname="De_Havilland_Comet.svg" xmlns:cc="http://creativecommons.org/ns#" xmlns:dc="http://purl.org/dc/elements/1.1/" xmlns:inkscape="http://www.inkscape.org/namespaces/inkscape" xmlns:rdf="http://www.w3.org/1999/02/22-rdf-syntax-ns#" xmlns:sodipodi="http://sodipodi.sourceforge.net/DTD/sodipodi-0.dtd" xmlns:svg="http://www.w3.org/2000/svg"
	 xmlns="http://www.w3.org/2000/svg" xmlns:xlink="http://www.w3.org/1999/xlink" x="0px" y="0px" viewBox="0 0 1590 1500"
	 style="enable-background:new 0 0 1590 1500;" xml:space="preserve">
<style type="text/css">
	.st0{fill:#FFFFFF;}
	.st1{fill:#808080;}
	.st2{fill:none;stroke:#000000;stroke-width:0.7;stroke-linecap:round;stroke-linejoin:round;}
	.st3{fill:none;stroke:#000000;stroke-width:1.5;stroke-linecap:round;stroke-linejoin:round;}
	.st4{fill:none;stroke:#000000;stroke-width:0.5;stroke-linecap:round;stroke-linejoin:round;}
	.st5{fill:none;stroke:#000000;stroke-width:1.5;stroke-linecap:round;}
</style>
<path id="rect24375" inkscape:connector-curvature="0" class="st0" d="M0,0h1590v1500H0L0,0z"/>
<g id="g9267">
	<path id="path9259" inkscape:connector-curvature="0" class="st1" d="M1334.3,1084.1h2.4v13.3h-2.4V1084.1z"/>
	<path id="path9230" inkscape:connector-curvature="0" class="st1" d="M1327.9,962.4c1.4-1.6,3.7-1.9,5.8-1.8c2.6,0.1,5.4,1,7,3.2
		c1.5,3.2,1.7,6.8,1.8,10.3c-0.2,4-1.1,8.4-4.2,11.2c-1.5,1.3-3.6,1.7-5.6,1.6c-2.6-0.3-4.9-1.8-6.2-4.1c-2.1-3.5-1.8-7.6-1.6-11.5
		C1325,968.2,1325.6,964.7,1327.9,962.4L1327.9,962.4z"/>
	<path id="path9232" inkscape:connector-curvature="0" class="st1" d="M1327.9,1008.5c1.3-1.4,3.4-1.9,5.3-1.8
		c2.8-0.1,5.8,0.9,7.5,3.2c1.5,3.1,1.7,6.7,1.8,10.1c-0.1,3.7-0.8,7.5-3.2,10.5c-1.5,1.8-3.7,2.7-6,2.6c-3.3,0-6.3-2.5-7.5-5.6
		c-1.4-3.6-1-7.5-0.8-11.2C1325.2,1013.5,1325.9,1010.5,1327.9,1008.5L1327.9,1008.5z"/>
	<path id="path9176" inkscape:connector-curvature="0" class="st1" d="M1334.3,723.1h2.4v-13.3h-2.4V723.1z"/>
	<path id="path9172" inkscape:connector-curvature="0" class="st1" d="M1327.9,844.8l0.8,0.7l0.9,0.4l1.1,0.4l1.2,0.2h2.3l2.4-0.5
		l1.1-0.3l1-0.5l0.8-0.6l0.8-0.8l0.5-0.8l0.4-1.1l0.5-2.1l0.4-2.3l0.1-2.2l0.1-2.2l-0.2-2.2l-0.3-2.1l-0.6-2.2l-0.9-2l-1.3-1.9
		l-0.8-0.7l-0.8-0.6l-1-0.5l-1.1-0.3l-1.2-0.1h-1.2l-1.2,0.2l-1.2,0.3l-1,0.4l-0.9,0.6l-0.8,0.7l-0.7,0.8l-1.2,1.9l-0.7,2.1
		l-0.3,2.1l-0.1,2.3l0.1,4.6l0.2,2.3l0.5,2.2l0.8,2l0.6,0.9L1327.9,844.8L1327.9,844.8z"/>
	<path id="path9174" inkscape:connector-curvature="0" class="st1" d="M1327.9,798.7l0.8,0.7l0.9,0.4l1.1,0.4l1.2,0.2h2.3l2.4-0.5
		l1.1-0.3l1-0.5l0.8-0.6l0.8-0.8l0.5-0.8l0.4-1.1l0.5-2.2l0.4-2.2l0.1-2.2l0.1-2.2l-0.2-2.2l-0.3-2.1l-0.6-2.2l-0.9-2l-1.3-1.9
		l-0.8-0.7l-0.8-0.6l-1-0.5l-1.1-0.3l-1.2-0.1h-1.2l-1.2,0.1l-1.2,0.3l-1,0.5l-0.9,0.6l-0.8,0.7l-0.7,0.8l-1.2,1.9l-0.7,2.1
		l-0.3,2.1l-0.1,2.3l0.1,4.6l0.2,2.3l0.5,2.2l0.8,2l0.6,0.9L1327.9,798.7L1327.9,798.7z"/>
	<path id="_x32_8" inkscape:connector-curvature="0" sodipodi:nodetypes="cc" class="st2" d="M1324.9,910.9c1.3,6.9,4.6,13.5,9,18.9
		"/>
	<path id="_x32_9" inkscape:connector-curvature="0" class="st2" d="M1336.9,903.6c-0.5,9.7,9.8,17.7,19.1,15.2
		c6.9-1.6,12.4-8.1,12.1-15.2"/>
	<path id="_x33_0" inkscape:connector-curvature="0" class="st2" d="M1360.4,917v26.6"/>
	<path id="_x33_1" inkscape:connector-curvature="0" class="st2" d="M1391.7,903.6v29.7"/>
	<path id="_x33_2" inkscape:connector-curvature="0" class="st2" d="M1375.6,903.6v21"/>
	<path id="_x33_3" inkscape:connector-curvature="0" class="st3" d="M1378.6,904v10.5"/>
	<path id="_x33_4" inkscape:connector-curvature="0" class="st3" d="M1389.9,904v10.5"/>
	<path id="_x33_5" inkscape:connector-curvature="0" class="st3" d="M1378.6,914.5h11.3"/>
	<path id="_x33_6" inkscape:connector-curvature="0" class="st3" d="M1389.9,904h-11.3"/>
	<path id="_x35_9" inkscape:connector-curvature="0" class="st2" d="M1375.6,923.7c0,1.1,0,2.2,0.1,3.4c0,1.6,0.2,3.3,0.3,4.9
		c0.2,1.8,0.3,3.7,0.5,5.5c0.3,1.2,0.3,2.4,0.4,3.6c0,0.3,0,0.6,0,0.9"/>
	<path id="_x36_0" inkscape:connector-curvature="0" class="st3" d="M1378.6,923.7h11.3"/>
	<path id="_x36_1" inkscape:connector-curvature="0" class="st3" d="M1389.9,924.9v7.7"/>
	<path id="_x36_2" inkscape:connector-curvature="0" class="st3" d="M1378.6,915.5v8.2"/>
	<path id="_x36_3" inkscape:connector-curvature="0" class="st3" d="M1389.9,915.5h-11.3"/>
	<path id="_x36_4" inkscape:connector-curvature="0" class="st3" d="M1389.9,915.5v8.2"/>
	<path id="_x36_8" inkscape:connector-curvature="0" class="st3" d="M1378.6,924.9h11.3"/>
	<path id="_x38_1" inkscape:connector-curvature="0" class="st3" d="M1380.2,933.2l0.2-0.1l0.2-0.1h0.1l0.2-0.1l0.3-0.1l0.3-0.2
		l0.4-0.2l0.3-0.1l0.3-0.2l0.3-0.2l0.4-0.2l0.3-0.2l0.3-0.2l0.3-0.2l0.3-0.2l0.3-0.2l0.3-0.2l0.3-0.2l0.3-0.2l0.3-0.2l0.3-0.3
		l0.3-0.2l0.3-0.2l0.2-0.3l0.3-0.2l0.3-0.2l0.2-0.3l0.3-0.2l0.2-0.2l0.3-0.3l0.2-0.2l0.2-0.2l0.3-0.3l0.2-0.2"/>
	<path id="_x38_2" inkscape:connector-curvature="0" class="st3" d="M1378.6,924.9l1.6,8.3"/>
	<path id="_x38_3" inkscape:connector-curvature="0" class="st3" d="M1380.2,938.8l5.1-2.7l4.6-3.5"/>
	<path id="_x38_4" inkscape:connector-curvature="0" class="st3" d="M1380.2,934.8l0.2-0.1l0.2-0.1h0.1l0.2-0.1l0.3-0.1l0.3-0.2
		l0.4-0.2l0.3-0.1l0.3-0.2l0.3-0.2l0.4-0.2l0.3-0.2l0.3-0.2l0.3-0.2l0.3-0.2l0.3-0.2l0.3-0.2l0.3-0.2l0.3-0.2l0.3-0.2l0.3-0.3
		l0.3-0.2l0.3-0.2l0.3-0.2l0.2-0.3l0.3-0.2l0.2-0.2l0.3-0.3l0.2-0.2l0.3-0.3l0.2-0.2l0.3-0.2l0.2-0.2l0.1-0.2l0.1-0.1"/>
	<path id="_x38_5" inkscape:connector-curvature="0" class="st3" d="M1380.2,938.8v-4"/>
	<path id="_x34_11" inkscape:connector-curvature="0" class="st2" d="M1370.2,943.5v10.1"/>
	<path id="_x34_12" inkscape:connector-curvature="0" class="st2" d="M1346.2,939.4v9.3"/>
	<path id="_x34_13" inkscape:connector-curvature="0" class="st2" d="M1400.6,921.2l11,6"/>
	<path id="_x34_14" inkscape:connector-curvature="0" class="st2" d="M1393.9,946.1l-4.2-11.1"/>
	<path id="_x34_15" inkscape:connector-curvature="0" class="st2" d="M1327.5,933.3l0.3-0.6l0.4-0.6l0.3-0.6l0.3-0.6l0.4-0.6
		l0.4-0.6l0.3-0.6l0.4-0.6l0.8-1.2l0.8-1.3l0.8-1.2l0.9-1.2l0.8-1.2l0.9-1.2l0.9-1.1l0.9-1.2l1-1.1l0.9-1.1l1-1.2l0.9-1.1"/>
	<path id="_x34_16" inkscape:connector-curvature="0" class="st2" d="M1321.6,923.1l6.1-3.4"/>
	<path id="_x34_17" inkscape:connector-curvature="0" class="st3" d="M1326.5,903.6l0.6,7.2"/>
	<path id="_x34_18" inkscape:connector-curvature="0" class="st3" d="M1318.1,910.8h9"/>
	<path id="_x34_19" inkscape:connector-curvature="0" class="st3" d="M1332.6,930.7l-0.3-0.9l-0.9-0.4l-0.9,0.4l-0.4,0.9l0.4,0.9
		l0.9,0.4l0.9-0.4L1332.6,930.7z"/>
	<path id="_x34_20" inkscape:connector-curvature="0" class="st3" d="M1332.5,930.1l3.6-0.6"/>
	<path id="_x34_21" inkscape:connector-curvature="0" class="st3" d="M1336.1,929.4l0.2,0.8l-3.7,0.6"/>
	<path id="_x34_22" inkscape:connector-curvature="0" class="st2" d="M1334.7,930.6c9.1,10.3,23.7,15.2,37.2,12.6
		c15.8-2.7,29.1-15.8,32.1-31.6c0.7-2.6,0.7-5.3,0.8-8"/>
	<path id="_x34_23" inkscape:connector-curvature="0" class="st3" d="M1412.4,907.2l0.2-3.6"/>
	<path id="_x34_24" inkscape:connector-curvature="0" class="st3" d="M1412.4,907.2c0,1.9,0,3.8,0,5.7c0.3,0.2-0.1,0.7,0.2,0.9
		c0,0.3,0,0.6,0.4,0.5c0.2-0.3,0.5-0.7,0.6-1.2c0.3-0.6,0.4-1.3,0.6-2c0.2-0.8,0.5-1.5,0.5-2.3c0.3-0.6,0.3-1.3,0.5-2
		c0-0.7,0.2-1.4,0.3-2.1c0-0.4,0-0.7,0-1.1"/>
	<path id="_x34_25" inkscape:connector-curvature="0" class="st3" d="M1405.6,936.1l33.5,200.3"/>
	<path id="_x34_26" inkscape:connector-curvature="0" class="st3" d="M1393.9,946.1l41,190.3"/>
	<path id="_x34_27" inkscape:connector-curvature="0" class="st3" d="M1439.1,1136.4c0.1,0.5,0.3,1,0.3,1.6c0,0.8,0.2,1.5,0.3,2.3
		c0.2,1.3,0.2,2.6,0.5,3.9c0.1,0.4,0,0.9,0.1,1.3c0.1,0.6,0,1.2,0.1,1.7c0,1,0,2.1,0,3.1c-0.2,0.1,0,0.4-0.2,0.5
		c0,0.2-0.2,0.3-0.4,0.1c-0.2-0.1-0.2-0.2-0.3-0.4c-0.2-0.1-0.1-0.3-0.3-0.5c-0.2-0.2-0.2-0.5-0.3-0.7c-0.2-0.3-0.2-0.7-0.4-1.1
		c-0.2-0.4-0.4-0.9-0.5-1.3c-0.1-0.6-0.4-1.1-0.6-1.7c-0.4-0.9-0.6-2-0.9-2.9c-0.2-0.7-0.4-1.5-0.7-2.2c-0.1-0.6-0.3-1.1-0.4-1.6
		c0-0.4-0.2-0.7-0.3-1.1c-0.1-0.3-0.1-0.6-0.2-0.9"/>
	<path id="_x34_28" inkscape:connector-curvature="0" class="st2" d="M1439.1,1136.4l-4,0.8"/>
	<path id="_x34_31" inkscape:connector-curvature="0" class="st2" d="M1535.3,903.6v3.5"/>
	<path id="_x34_32" inkscape:connector-curvature="0" class="st3" d="M1417.1,910.4l126-3.6"/>
	<path id="_x34_33" inkscape:connector-curvature="0" class="st3" d="M1535.3,907.1c1.3,0,2.6,0,3.9-0.1c2.5,0,5-0.2,7.5-0.3
		c2.1-0.1,4.2-0.4,6.3-0.4c1.5-0.2,3-0.4,4.5-0.6c1.5-0.5,3.2-0.5,4.5-1.5c0.1-0.2,0.4-0.4,0.3-0.6"/>
	<path id="_x34_34" inkscape:connector-curvature="0" class="st2" d="M1454.6,903.6v5.8"/>
	<path id="_x34_35" inkscape:connector-curvature="0" class="st2" d="M1448.2,909.6v-6"/>
	<path id="_x34_36" inkscape:connector-curvature="0" class="st3" d="M1317.6,903.6h8.9"/>
	<path id="_x34_37" inkscape:connector-curvature="0" class="st3" d="M1322.7,1151.9h20.7"/>
	<path id="_x34_38" inkscape:connector-curvature="0" class="st3" d="M1349.1,1037.8l-5.7,114.1"/>
	<path id="_x34_39" inkscape:connector-curvature="0" sodipodi:nodetypes="cccc" class="st3" d="M1343.4,1151.9l2.4,69.7
		 M1346,1226.7l2.1,59.9"/>
	<path id="_x34_40" inkscape:connector-curvature="0" class="st3" d="M1346.6,1448.5l-23.8-296.6"/>
	<path id="_x34_41" inkscape:connector-curvature="0" class="st3" d="M1322.7,1151.9l-0.6-42"/>
	<path id="_x34_42" inkscape:connector-curvature="0" class="st3" d="M1313.2,903.6v39.5"/>
	<path id="_x34_43" inkscape:connector-curvature="0" class="st3" d="M1309.2,962.3v60.9"/>
	<path id="_x34_44" inkscape:connector-curvature="0" class="st3" d="M1309.2,1023.2c0.1,1.8,0.4,3.7,1.1,5.4
		c0.9,2.3,2.5,4.4,4.4,5.9c1.4,1.1,3,2.2,4.8,2.6c0.5,0.1,1.1,0.3,1.6,0.4"/>
	<path id="_x34_45" inkscape:connector-curvature="0" class="st3" d="M1313.2,952.3c-2.7,2.7-3.8,6.3-4,10"/>
	<path id="_x34_46" inkscape:connector-curvature="0" class="st2" d="M1313.2,933.5h14.4"/>
	<path id="_x34_47" inkscape:connector-curvature="0" class="st2" d="M1313.2,939.3h19.4"/>
	<path id="_x34_48" inkscape:connector-curvature="0" class="st2" d="M1319.7,933.5l-6.5-29.9"/>
	<path id="_x34_49" inkscape:connector-curvature="0" class="st2" d="M1327.8,939.3v16.9"/>
	<path id="_x34_50" inkscape:connector-curvature="0" class="st2" d="M1319.5,939.3V939l-0.1-0.2v-0.3l-0.1-0.2v-0.3l-0.1-0.2
		l-0.1-0.3l-0.2-0.2l-0.1-0.3l-0.2-0.2l-0.1-0.2l-0.2-0.2l-0.2-0.3l-0.2-0.2l-0.2-0.2l-0.2-0.2l-0.2-0.2l-0.3-0.2l-0.2-0.1l-0.2-0.2
		l-0.3-0.1l-0.2-0.2l-0.3-0.1l-0.2-0.1l-0.3-0.1l-0.3-0.1l-0.2-0.1l-0.3-0.1h-0.3l-0.2-0.1h-0.3h-0.2"/>
	<path id="_x34_51" inkscape:connector-curvature="0" class="st2" d="M1313.2,952.3c4.1,3.2,9.5,4,14.6,3.9"/>
	<path id="_x34_52" inkscape:connector-curvature="0" class="st2" d="M1319.5,955.3v-16"/>
	<path id="_x34_53" inkscape:connector-curvature="0" class="st3" d="M1349.6,987.5c1.7-4,3-8.3,3.2-12.7c0.4-3.7,0.1-7.6-0.9-11.2
		c-0.4-1.2-0.8-2.5-1.1-3.7"/>
	<path id="_x34_54" inkscape:connector-curvature="0" class="st3" d="M1349.1,1037.8c1.5-4.6,2.6-9.4,2.7-14.3
		c0.1-3.7-0.3-7.4-1.2-11c-0.4-1.9-1.2-3.7-1.7-5.6"/>
	<path id="_x34_55" inkscape:connector-curvature="0" class="st3" d="M1349.6,987.5c-1.5,3.3-2.5,6.8-2.4,10.4
		c-0.1,3.1,0.7,6.1,1.6,9"/>
	<path id="_x34_56" inkscape:connector-curvature="0" class="st3" d="M1357.3,952.5c-1-0.1-2.1-0.2-3.1,0.2
		c-1.8,0.6-3.2,2.2-3.5,4.1c-0.2,1,0,2.1,0.2,3.1"/>
	<path id="_x34_57" inkscape:connector-curvature="0" class="st2" d="M1327.8,956.2h14.6"/>
	<path id="_x34_58" inkscape:connector-curvature="0" class="st2" d="M1327.8,956.2c-3.3,5.4-5.8,11.6-5.5,18.1
		c0.1,5.9,2.1,11.5,3.7,17.1c1.3,4.4,1.7,9.3,0.1,13.7c-1.7,5.7-4.3,11.2-4,17.3c0.1,7.6,3.1,14.7,6.4,21.4c0.3,0.7,0.6,1.3,0.9,1.9
		"/>
	<path id="_x34_59" inkscape:connector-curvature="0" class="st2" d="M1329.5,1045.8c-7.5-7.4-12.3-17.8-12.6-28.4
		c0-8.9,4.6-17.7,1.9-26.6c-2-7.9-4.8-16-3.1-24.2c0.7-4,2.1-7.7,3.8-11.3"/>
	<path id="_x34_60" inkscape:connector-curvature="0" class="st2" d="M1346.2,948.8c-0.8-0.1-1.6-0.2-2.3,0.1
		c-1.2,0.4-2.3,1.4-2.7,2.6c-0.4,1-0.3,2.1,0,3.1c0.2,0.7,0.7,1.2,1.2,1.7"/>
	<path id="_x34_61" inkscape:connector-curvature="0" class="st2" d="M1350.6,958.5c-2.2-2-5.2-2.6-8.2-2.3"/>
	<path id="_x34_62" inkscape:connector-curvature="0" class="st3" d="M1327.9,962.4c1.4-1.6,3.7-1.9,5.8-1.8c2.6,0.1,5.4,1,7,3.2
		c1.5,3.2,1.7,6.8,1.8,10.3c-0.2,4-1.1,8.4-4.2,11.2c-1.5,1.3-3.6,1.7-5.6,1.6c-2.6-0.3-4.9-1.8-6.2-4.1c-2.1-3.5-1.8-7.6-1.6-11.5
		C1325,968.2,1325.6,964.7,1327.9,962.4L1327.9,962.4z"/>
	<path id="_x34_63" inkscape:connector-curvature="0" class="st2" d="M1342.4,956.2c1.8,5.6,3.5,11.4,3.1,17.4
		c-0.3,7.2-2.4,14.2-5.9,20.5c-1.5,2.8-1.6,6.2,0.2,8.9c1.8,3.6,4.4,6.8,5,10.9c1.3,6,1.1,12.3,0.5,18.4c-0.6,4-2,7.8-3.4,11.6"/>
	<path id="_x34_64" inkscape:connector-curvature="0" class="st2" d="M1324.1,984.9c1.2,2.7,3.6,4.8,6.3,5.9c2.6,1.1,5.6,1,8.1-0.3
		c1.5-0.5,2.8-1.5,4-2.5"/>
	<path id="_x34_65" inkscape:connector-curvature="0" class="st2" d="M1337.5,997.8c0-1.6-0.9-3.2-2.4-3.8c-1.2-0.5-2.6-0.5-3.7,0.1
		c-1.1,0.8-2.1,2-2.2,3.4c-0.2,2,1.3,4,3.3,4.3c1.4,0.3,2.9-0.2,3.9-1.2C1337.1,999.9,1337.5,998.8,1337.5,997.8L1337.5,997.8z"/>
	<path id="_x34_66" inkscape:connector-curvature="0" class="st2" d="M1332.4,993.7v8.1"/>
	<path id="_x34_67" inkscape:connector-curvature="0" class="st3" d="M1327.9,1008.5c1.3-1.4,3.4-1.9,5.3-1.8
		c2.8-0.1,5.8,0.9,7.5,3.2c1.5,3.1,1.7,6.7,1.8,10.1c-0.1,3.7-0.8,7.5-3.2,10.5c-1.5,1.8-3.7,2.7-6,2.6c-3.3,0-6.3-2.5-7.5-5.6
		c-1.4-3.6-1-7.5-0.8-11.2C1325.2,1013.5,1325.9,1010.5,1327.9,1008.5L1327.9,1008.5z"/>
	<path id="_x34_68" inkscape:connector-curvature="0" class="st2" d="M1325.6,1006.9c1.5-2.7,4.8-3.7,7.8-3.8c3,0,5.9,1,8.2,2.8"/>
	<path id="_x34_69" inkscape:connector-curvature="0" class="st2" d="M1323.1,1029.8c1.7,3.1,4.6,5.7,8,6.8c2.8,0.9,5.8,0.7,8.5-0.5
		c2.3-1,4.3-2.6,5.5-4.8c0.1-0.6,0.5-1,0.5-1.6"/>
	<path id="_x34_70" inkscape:connector-curvature="0" class="st2" d="M1329.5,1045.8c2.2,1.3,4.9,1.2,7.3,0.3
		c4.7-1.6,9.1-4.5,12.3-8.3"/>
	<path id="_x34_71" inkscape:connector-curvature="0" class="st2" d="M1338.8,1041.9c0-1.1-0.6-2.1-1.6-2.6
		c-0.7-0.3-1.6-0.3-2.4-0.1c-0.9,0.3-1.6,1.2-1.7,2.2c-0.1,0.8,0.1,1.7,0.6,2.3c0.7,0.8,2,1.2,3,0.8
		C1337.9,1044.2,1338.8,1043.1,1338.8,1041.9L1338.8,1041.9z"/>
	<path id="_x34_72" inkscape:connector-curvature="0" class="st2" d="M1324.8,987.6h-6.8"/>
	<path id="_x34_73" inkscape:connector-curvature="0" class="st2" d="M1325.3,1007.8h-7.1"/>
	<path id="_x34_74" inkscape:connector-curvature="0" class="st2" d="M1317.2,984.8h6.9"/>
	<path id="_x34_75" inkscape:connector-curvature="0" class="st2" d="M1318.6,1004.9h7.6"/>
	<path id="_x34_76" inkscape:connector-curvature="0" class="st2" d="M1317.1,954.5c-3.5,6.8-5.4,14.7-4.4,22.4
		c0.5,5.6,2.6,10.8,3.5,16.3c0.8,6.2-2.9,11.8-3.2,18c-0.7,8.8,1.6,17.7,5.4,25.6"/>
	<path id="_x34_77" inkscape:connector-curvature="0" class="st2" d="M1309.2,998.7l10.4-3.2"/>
	<path id="_x34_78" inkscape:connector-curvature="0" class="st2" d="M1309.2,1002.6l6.3-2"/>
	<path id="_x34_79" inkscape:connector-curvature="0" class="st2" d="M1315.5,1000.6l3.6,2.1"/>
	<path id="_x34_80" inkscape:connector-curvature="0" class="st2" d="M1339.6,950.7c0-1.4-0.7-2.6-1.8-3.4c-1.5-1.1-3.7-1-5.1,0.2
		c-1,0.8-1.6,2-1.6,3.3c0,1.4,0.8,2.9,2.1,3.6c0.9,0.4,1.9,0.9,2.9,0.6c1.1-0.3,2.3-0.9,2.9-1.9
		C1339.4,952.4,1339.6,951.6,1339.6,950.7L1339.6,950.7z"/>
	<path id="_x34_81" inkscape:connector-curvature="0" class="st3" d="M1307.3,943.1h9.5v1.5h-9.5V943.1z"/>
	<path id="_x34_82" inkscape:connector-curvature="0" class="st3" d="M1313.2,944.6v7.8"/>
	<path id="_x34_83" inkscape:connector-curvature="0" class="st3" d="M1352.7,977.4c1.2,0.1,2.8,1.7,1.7,2.7
		c-0.7,0.5-1.6,0.7-2.4,0.7"/>
	<path id="_x34_84" inkscape:connector-curvature="0" class="st3" d="M1349.5,987.6c1.4,0,3.1,2.3,1.4,3.2c-0.8,0.7-1.9,0.8-2.8,0.9
		"/>
	<path id="_x34_85" inkscape:connector-curvature="0" class="st3" d="M1351.2,1015.3c1.3,0,3,0,3.7,1.2c-0.1,1.6-1.9,2.4-3.2,2.7"/>
	<path id="_x34_86" inkscape:connector-curvature="0" class="st3" d="M1351.7,1024.8c1.2,0,2.8,0.3,3.5,1.4c0,1.2-1.6,1.6-2.6,2
		c-0.4,0-0.7,0.2-1.2,0.1"/>
	<path id="_x34_87" inkscape:connector-curvature="0" class="st2" d="M1329.5,1045.8l0.2,106.2"/>
	<path id="_x34_88" inkscape:connector-curvature="0" class="st2" d="M1342,1043.8l-3.3,108.2"/>
	<path id="_x34_89" inkscape:connector-curvature="0" class="st3" d="M1321.6,1070.5c-1,0-2.1,0.5-2.8,1.3c-1,1-1.3,2.3-1.6,3.6
		c-0.3,1.5-0.6,2.9-0.9,4.4c-0.1,1.8-0.5,3.6-0.5,5.5c-0.3,2-0.1,4.1-0.3,6.1c0.1,1.9,0.1,3.9,0.3,5.8c0.2,1.5,0.3,2.9,0.5,4.4
		c0.4,1.4,0.3,3,1.1,4.3c0.4,1,0.9,2,1.6,2.8c0.8,0.8,2,1.5,3.1,1.3"/>
	<path id="_x34_90" inkscape:connector-curvature="0" class="st2" d="M1322.1,1109.9c1-4.9,1.8-9.8,1.9-14.8
		c0.2-6.3,0-12.7-1.2-18.9c-0.4-1.9-0.8-3.9-1.2-5.8"/>
	<path id="_x34_91" inkscape:connector-curvature="0" class="st3" d="M1321.6,1070.5l-0.4-33"/>
	<path id="_x34_92" inkscape:connector-curvature="0" class="st3" d="M1334.3,1084.1h2.4v13.3h-2.4V1084.1z"/>
	<path id="_x34_93" inkscape:connector-curvature="0" class="st3" d="M1346.6,1448.5c0.4,3.6,0.6,7.3,1,10.9c0.3,3,0.6,6.1,0.9,9.1
		c0.2,1.1,0.2,2.2,0.4,3.3c0,1.1,0.4,2.2,0.4,3.3c0.3,1.3,0.4,2.7,0.8,4c0.3,0.7,0.3,1.9,1,2.2c0.6-0.6,0.8-1.8,0.9-2.7
		c0.5-2,0.5-4,0.8-6.1c0.2-2.4,0.5-4.7,0.5-7.1c0.3-2.8,0.3-5.6,0.3-8.4c0.1-2.8,0.1-5.5,0.1-8.3c0-0.3-0.1-0.6-0.1-0.9"/>
	<path id="_x34_94" inkscape:connector-curvature="0" class="st3" d="M1353.2,1468.2h-4.6"/>
	<path id="_x34_95" inkscape:connector-curvature="0" class="st2" d="M1353.7,1455.8h-6.4"/>
	<path id="_x35_06" inkscape:connector-curvature="0" class="st2" d="M1347.6,1274.3h0.1"/>
	<path id="_x35_07" inkscape:connector-curvature="0" class="st2" d="M1347.6,1274.3l-15,0.6"/>
	<path id="_x35_08" inkscape:connector-curvature="0" sodipodi:nodetypes="cccc" class="st2" d="M1338.7,1151.9l3.1,70.2
		 M1342,1226.2l10.3,229.3"/>
	<path id="_x35_09" inkscape:connector-curvature="0" sodipodi:nodetypes="cc" class="st2" d="M1348.8,1455.5l-19.1-303.6"/>
	<path id="_x35_40" inkscape:connector-curvature="0" class="st2" d="M1340.1,1181.5h-8.6"/>
	<path id="_x35_41" inkscape:connector-curvature="0" class="st2" d="M1343,1364.7c-0.1,0.2,0,0.4,0.2,0.6c0.1,0.2,0.2,0.4,0.4,0.6
		c0.1,0.2,0.3,0.3,0.4,0.5c0.1,0.2,0.3,0.3,0.3,0.5c0.1,0.1,0.3,0.2,0.5,0.3c0.2,0.1,0.4,0.2,0.6,0.3c0.2,0,0.5,0,0.7-0.1
		c0.2-0.1,0.4-0.2,0.6-0.3c0.1-0.2,0.4-0.2,0.5-0.4c0.2-0.2,0.2-0.4,0.4-0.5c0.1-0.2,0.2-0.4,0.4-0.6c0.1-0.3,0.3-0.6,0.4-0.9"/>
	<path id="_x35_42" inkscape:connector-curvature="0" class="st3" d="M1348,1286.7h0.4l0.3,0.1h0.4l0.3,0.1l0.8,0.1l0.7,0.2l0.7,0.3
		l0.3,0.1l0.3,0.1l0.3,0.2l0.3,0.2l0.2,0.1l0.2,0.2l0.1,0.2l0.2,0.2v0.2v0.2v0.2l-0.1,0.2l-0.1,0.2l-0.2,0.2l-0.2,0.2l-0.2,0.1
		l-0.2,0.2l-0.3,0.2l-0.4,0.2l-0.3,0.1l-0.4,0.1l-0.3,0.1l-0.4,0.1l-0.4,0.1l-0.4,0.1h-0.4h-0.4h-0.4h-0.4l-0.4-0.1l-0.4-0.1
		l-0.4-0.1l-0.3-0.2l-0.4-0.1l-0.2-0.2l-0.3-0.2l-0.2-0.3l-0.2-0.2l-0.1-0.2l-0.1-0.3v-0.2v-0.3l0.1-0.3l0.1-0.3l0.2-0.2l0.2-0.3
		l0.3-0.2l0.3-0.3l0.2-0.2l0.4-0.1l0.3-0.2l0.3-0.1h0.3L1348,1286.7L1348,1286.7z"/>
	<path id="_x35_43" inkscape:connector-curvature="0" class="st3" d="M1348.3,1291.7l5.4,156"/>
	<path id="_x35_44" inkscape:connector-curvature="0" class="st3" d="M1340.2,1224l0.1-0.3v-0.1l0.1-0.2l0.1-0.2l0.1-0.1l0.1-0.2
		l0.1-0.1l0.2-0.1l0.2-0.1l0.2-0.1l0.2-0.1l0.2-0.1l0.4-0.2l0.5-0.1l0.5-0.1l0.6-0.1h0.5h0.6l0.6-0.1h0.5l0.6,0.1h0.5h0.6l0.5,0.1
		l0.5,0.1l0.5,0.1l0.5,0.1l0.5,0.1l0.4,0.1l0.4,0.1l0.3,0.2l0.4,0.1l0.2,0.2l0.2,0.2l0.2,0.1l0.1,0.1v0.1l0.1,0.1v0.1v0.1v0.1v0.1
		v0.1l-0.1,0.1l-0.1,0.1l-0.1,0.2l-0.2,0.2l-0.3,0.2l-0.3,0.2l-0.4,0.2l-0.3,0.2l-0.5,0.2l-0.4,0.1l-0.5,0.2l-0.5,0.1l-0.5,0.2
		l-0.5,0.1h-0.6l-0.5,0.1l-0.6,0.1h-0.6h-0.6h-0.5l-0.6-0.1l-0.5-0.1l-0.5-0.1l-0.5-0.1l-0.5-0.2l-0.2-0.1l-0.2-0.1l-0.2-0.1
		l-0.2-0.1l-0.1-0.1l-0.2-0.2l-0.1-0.1l-0.1-0.2l-0.1-0.1l-0.1-0.2v-0.2l-0.1-0.2v-0.1L1340.2,1224L1340.2,1224z"/>
	<path id="_x35_45" inkscape:connector-curvature="0" class="st4" d="M1269.5,1045.5h20.8"/>
	<path id="_x35_46" inkscape:connector-curvature="0" class="st4" d="M1269.5,1045.5l-1.8,0.3l-1.6,1.1l-1.1,1.6l-0.3,1.9l0.3,1.8
		l1.1,1.6l1.6,1.1l1.8,0.4"/>
	<path id="_x35_47" inkscape:connector-curvature="0" class="st4" d="M1290.3,1055.1l1.9-0.4l1.6-1.1l0.9-1.6l0.4-1.8l-0.4-1.9
		l-0.9-1.6l-1.6-1.1l-1.9-0.3"/>
	<path id="_x35_48" inkscape:connector-curvature="0" class="st4" d="M1264.8,1082.7v-67.4"/>
	<path id="_x35_49" inkscape:connector-curvature="0" class="st4" d="M1290.3,1055.1h-20.8"/>
	<path id="_x35_50" inkscape:connector-curvature="0" class="st4" d="M1269.5,1031.2h20.8"/>
	<path id="_x35_51" inkscape:connector-curvature="0" class="st4" d="M1269.5,1031.2l-1.8,0.4l-1.6,1.1l-1.1,1.5l-0.3,1.9l0.3,1.8
		l1.1,1.6l1.6,1.1l1.8,0.4"/>
	<path id="_x35_52" inkscape:connector-curvature="0" class="st4" d="M1290.3,1040.8l1.9-0.4l1.6-1.1l0.9-1.6l0.4-1.8l-0.4-1.9
		l-0.9-1.5l-1.6-1.1l-1.9-0.4"/>
	<path id="_x35_53" inkscape:connector-curvature="0" class="st4" d="M1290.3,1040.8h-20.8"/>
	<path id="_x35_54" inkscape:connector-curvature="0" class="st4" d="M1264.8,934.8v-31.2"/>
	<path id="_x35_55" inkscape:connector-curvature="0" class="st4" d="M1268.6,907.1h20.2"/>
	<path id="_x35_56" inkscape:connector-curvature="0" class="st4" d="M1288.7,914.7l1.5-0.3l1.3-0.8l0.8-1.2l0.3-1.5l-0.3-1.5
		l-0.8-1.3l-1.3-0.8l-1.5-0.3"/>
	<path id="_x35_57" inkscape:connector-curvature="0" class="st4" d="M1268.6,907.1l-1.5,0.3l-1.3,0.8l-0.8,1.3l-0.2,1.5l0.2,1.5
		l0.8,1.2l1.3,0.8l1.5,0.3"/>
	<path id="_x35_58" inkscape:connector-curvature="0" class="st4" d="M1288.7,914.7h-20.2"/>
	
		<path id="_x31_294" inkscape:connector-curvature="0" sodipodi:nodetypes="csssssssssssssssssssssssssssssssscccccccccccccccccccccccccc" class="st3" d="
		M1417.7,903.6c0,0-0.2-3.3-0.3-4.9c-0.2-1.6-0.3-3.2-0.6-4.8c-0.3-1.6-0.8-3.2-1.3-4.7c-0.5-1.6-1.1-3.1-1.7-4.6
		c-0.6-1.5-1.2-3.1-2-4.5c-0.8-1.5-1.7-2.8-2.6-4.2c-0.9-1.3-1.8-2.6-2.8-3.9c-1.1-1.3-2.2-2.5-3.4-3.7c-1.1-1.1-2.3-2.2-3.6-3.3
		c-1.3-1-2.6-2-4-2.9c-1.4-0.9-2.8-1.7-4.2-2.5c-1.4-0.8-2.9-1.5-4.4-2.1c-1.5-0.6-3.1-1.2-4.6-1.7c-1.6-0.5-3.2-0.8-4.8-1.2
		c-1.6-0.3-3.2-0.6-4.8-0.7c-1.6-0.2-3.2-0.2-4.8-0.2c-1.6,0-3.3,0.1-4.9,0.2c-1.6,0.2-3.2,0.4-4.8,0.7c-1.6,0.3-3.2,0.7-4.8,1.2
		c-1.6,0.5-3.1,1-4.6,1.7c-1.5,0.6-3,1.3-4.4,2.1c-1.4,0.8-2.8,1.6-4.2,2.5c-1.3,0.9-2.6,1.9-3.9,2.9c-1.3,1-2.5,2.1-3.7,3.3
		c-1.2,1.2-2.2,2.4-3.3,3.7c-1,1.3-2,2.5-2.9,3.9c-0.9,1.4-1.8,2.8-2.5,4.2c-0.8,1.5-1.5,3-2.1,4.5c-0.6,1.5-1.2,3.1-1.7,4.6
		c-0.5,1.6-0.8,3.1-1.2,4.7c-0.3,1.6-0.6,3.2-0.7,4.8c-0.2,1.6-0.3,3.3-0.3,4.9c0,2,0.4,6,0.4,6l1.1,6l1.8,5.8l2.5,5.5l3.2,5.1
		l3.7,4.8l4.3,4.2l4.7,3.8l5.1,3.2l5.6,2.4l5.8,1.8l5.9,1.2l6.1,0.3l6-0.3l6-1.2l5.7-1.8l5.6-2.4l5.1-3.2l4.7-3.8l4.3-4.2l3.7-4.8
		l3.2-5.1l2.5-5.5l1.8-5.8l1-6L1417.7,903.6"/>
	<path id="_x31_295" inkscape:connector-curvature="0" sodipodi:nodetypes="cc" class="st2" d="M1334,877.3
		c-4.6,5.4-7.8,12.1-9.1,19.1"/>
	<path id="_x31_296" inkscape:connector-curvature="0" class="st2" d="M1368.1,903.6c0.2-8.1-6.8-15.5-15-15.6
		c-8.4-0.6-16.4,6.8-16.2,15.3l0,0.3"/>
	<path id="_x31_297" inkscape:connector-curvature="0" class="st2" d="M1360.4,890.2v-26.7"/>
	<path id="_x31_298" inkscape:connector-curvature="0" class="st2" d="M1391.7,903.6v-29.7"/>
	<path id="_x31_299" inkscape:connector-curvature="0" class="st2" d="M1375.6,903.6v-21"/>
	<path id="_x31_300" inkscape:connector-curvature="0" class="st3" d="M1378.6,903.1v-10.4"/>
	<path id="_x31_301" inkscape:connector-curvature="0" class="st3" d="M1389.9,903.1v-10.4"/>
	<path id="_x31_302" inkscape:connector-curvature="0" class="st3" d="M1378.6,892.7h11.3"/>
	<path id="_x31_303" inkscape:connector-curvature="0" class="st3" d="M1389.9,903.1h-11.3"/>
	<path id="_x31_304" inkscape:connector-curvature="0" class="st2" d="M1375.6,883.5l0.1-4.5l0.4-4.6l0.8-9.1"/>
	<path id="_x31_305" inkscape:connector-curvature="0" class="st3" d="M1378.6,883.5h11.3"/>
	<path id="_x31_306" inkscape:connector-curvature="0" class="st3" d="M1389.9,882.3v-7.7"/>
	<path id="_x31_307" inkscape:connector-curvature="0" class="st3" d="M1378.6,891.7v-8.2"/>
	<path id="_x31_308" inkscape:connector-curvature="0" class="st3" d="M1389.9,891.7h-11.3"/>
	<path id="_x31_309" inkscape:connector-curvature="0" class="st3" d="M1389.9,891.7v-8.2"/>
	<path id="_x31_310" inkscape:connector-curvature="0" class="st3" d="M1378.6,882.3h11.3"/>
	<path id="_x31_311" inkscape:connector-curvature="0" class="st3" d="M1380.2,874l2.7,1.4l2.6,1.7l2.4,1.9l2,2"/>
	<path id="_x31_312" inkscape:connector-curvature="0" class="st3" d="M1378.6,882.3l1.6-8.3"/>
	<path id="_x31_313" inkscape:connector-curvature="0" class="st3" d="M1389.9,874.6l-3-2.4l-3.3-2.1l-3.5-1.7"/>
	<path id="_x31_314" inkscape:connector-curvature="0" class="st3" d="M1380.2,872.4l2.7,1.4l2.6,1.7l2.4,1.9l2,2"/>
	<path id="_x31_315" inkscape:connector-curvature="0" class="st3" d="M1380.2,868.4v4"/>
	<path id="_x31_316" inkscape:connector-curvature="0" class="st2" d="M1370.2,863.7v-10.1"/>
	<path id="_x31_317" inkscape:connector-curvature="0" class="st2" d="M1346.2,867.8v-9.3"/>
	<path id="_x31_318" inkscape:connector-curvature="0" class="st2" d="M1400.6,885.8l11-5.9"/>
	<path id="_x31_319" inkscape:connector-curvature="0" class="st2" d="M1393.9,861.1l-4.2,11.1"/>
	<path id="_x31_320" inkscape:connector-curvature="0" class="st2" d="M1327.5,873.8l1.4,2.6l1.6,2.4l3.5,4.8l3.7,4.5l4,4.2"/>
	<path id="_x31_321" inkscape:connector-curvature="0" class="st2" d="M1321.6,884l6.1,3.5"/>
	<path id="_x31_322" inkscape:connector-curvature="0" class="st3" d="M1327.1,896.4l-0.5,3.6l-0.1,3.7"/>
	<path id="_x31_323" inkscape:connector-curvature="0" class="st3" d="M1318.1,896.4h9"/>
	<path id="_x31_324" inkscape:connector-curvature="0" class="st3" d="M1332.6,876.5l-0.1-0.7l-0.5-0.4l-0.6-0.2l-0.7,0.2l-0.4,0.4
		l-0.2,0.7l0.2,0.6l0.4,0.5l0.7,0.1l0.6-0.1l0.5-0.5L1332.6,876.5z"/>
	<path id="_x31_325" inkscape:connector-curvature="0" class="st3" d="M1332.5,877.1l3.6,0.6"/>
	<path id="_x31_326" inkscape:connector-curvature="0" class="st3" d="M1336.1,877.8l0.2-0.8l-3.7-0.6"/>
	<path id="_x31_327" inkscape:connector-curvature="0" class="st2" d="M1404.7,903.6c0.2-13.3-6.9-26.3-18.1-33.6
		c-13.6-9.2-32.9-8.8-46,1.2c-2.2,1.5-4.1,3.4-6,5.4"/>
	<path id="_x31_328" inkscape:connector-curvature="0" class="st3" d="M1412.6,903.6l-0.2-3.7"/>
	<path id="_x31_329" inkscape:connector-curvature="0" class="st3" d="M1412.4,899.9c0-1.9-0.1-3.8,0-5.6c0-0.5,0.3-2,0.9-1
		c0.8,1.3,1,2.9,1.5,4.3c0.4,1.5,0.6,3.1,0.8,4.7c0,0.4,0,0.8,0,1.3"/>
	<path id="_x31_330" inkscape:connector-curvature="0" class="st3" d="M1405.6,871l33.5-200.3"/>
	<path id="_x31_331" inkscape:connector-curvature="0" class="st3" d="M1393.9,861.1l41-190.3"/>
	<path id="_x31_332" inkscape:connector-curvature="0" class="st3" d="M1439.1,670.8c0.3-2,0.7-4,0.9-6.1c0.3-2.3,0.5-4.6,0.4-6.9
		c0-0.5,0.1-1.2-0.3-1.6c-0.6,0-0.7,0.9-1,1.3c-1.2,2.6-2,5.3-2.8,8c-0.5,1.7-1,3.5-1.4,5.3"/>
	<path id="_x31_333" inkscape:connector-curvature="0" class="st2" d="M1439.1,670.8l-4-0.8"/>
	<path id="_x31_334" inkscape:connector-curvature="0" class="st2" d="M1535.3,903.6V900"/>
	<path id="_x31_335" inkscape:connector-curvature="0" class="st3" d="M1417.1,896.8l126,3.6"/>
	<path id="_x31_336" inkscape:connector-curvature="0" class="st3" d="M1535.3,900c5.4,0.4,10.7,0.3,16.1,0.8
		c3.3,0.3,6.6,0.6,9.7,1.6c0.5,0.2,1.1,0.5,1.2,1.2"/>
	<path id="_x31_337" inkscape:connector-curvature="0" class="st2" d="M1454.6,903.6v-5.8"/>
	<path id="_x31_338" inkscape:connector-curvature="0" class="st2" d="M1448.2,897.6v6"/>
	<path id="_x31_339" inkscape:connector-curvature="0" class="st3" d="M1317.6,903.6h8.9"/>
	<path id="_x31_340" inkscape:connector-curvature="0" class="st3" d="M1322.7,655.2h20.7"/>
	<path id="_x31_341" inkscape:connector-curvature="0" class="st3" d="M1349.1,769.4l-5.7-114.1"/>
	<path id="_x31_342" inkscape:connector-curvature="0" sodipodi:nodetypes="cccc" class="st3" d="M1343.4,655.2l2.4-69.8
		 M1346,580.4l2.1-60"/>
	<path id="_x31_343" inkscape:connector-curvature="0" class="st3" d="M1346.6,358.7l-23.8,296.6"/>
	<path id="_x31_344" inkscape:connector-curvature="0" class="st3" d="M1322.7,655.2l-0.6,41.9"/>
	<path id="_x31_345" inkscape:connector-curvature="0" class="st3" d="M1313.2,903.6v-39.5"/>
	<path id="_x31_346" inkscape:connector-curvature="0" class="st3" d="M1309.2,844.9V784"/>
	<path id="_x31_347" inkscape:connector-curvature="0" class="st3" d="M1321.2,769.7c-6.5,0.9-11.5,6.9-11.9,13.3l-0.1,0.7l0,0.3"/>
	<path id="_x31_348" inkscape:connector-curvature="0" class="st3" d="M1309.2,844.9c0.1,1.6,0.3,3.2,0.8,4.7
		c0.6,1.7,1.6,3.3,2.7,4.7c0.2,0.2,0.3,0.4,0.5,0.6"/>
	<path id="_x31_349" inkscape:connector-curvature="0" class="st2" d="M1313.2,873.7h14.4"/>
	<path id="_x31_350" inkscape:connector-curvature="0" class="st2" d="M1313.2,867.9h19.4"/>
	<path id="_x31_351" inkscape:connector-curvature="0" class="st2" d="M1319.7,873.7l-6.5,29.9"/>
	<path id="_x31_352" inkscape:connector-curvature="0" class="st2" d="M1327.8,867.9v-17"/>
	<path id="_x31_353" inkscape:connector-curvature="0" class="st2" d="M1319.5,867.9l-0.2,1.1l-0.4,1.1l-0.6,0.9l-0.8,0.9l-0.9,0.7
		l-1,0.5l-1.2,0.4l-1,0.1"/>
	<path id="_x31_354" inkscape:connector-curvature="0" class="st2" d="M1313.2,854.9c1.7-1.2,3.5-2.3,5.5-2.8c2.9-0.9,6-1.1,9.1-1.2
		"/>
	<path id="_x31_355" inkscape:connector-curvature="0" class="st2" d="M1319.5,851.8v16.1"/>
	<path id="_x31_356" inkscape:connector-curvature="0" class="st3" d="M1350.9,847.3c3.1-8.4,3-18-0.7-26.2
		c-0.2-0.5-0.4-0.9-0.6-1.4"/>
	<path id="_x31_357" inkscape:connector-curvature="0" class="st3" d="M1348.9,800.3c1.8-4.9,3-10.1,2.9-15.4
		c0-5.2-0.9-10.6-2.7-15.5"/>
	<path id="_x31_358" inkscape:connector-curvature="0" class="st3" d="M1348.9,800.3c-2.5,6.2-2.3,13.5,0.7,19.4"/>
	<path id="_x31_359" inkscape:connector-curvature="0" class="st3" d="M1350.9,847.3c-0.2,0.8-0.4,1.7-0.3,2.6
		c0.2,1.2,0.6,2.3,1.5,3.1c0.7,0.7,1.6,1.4,2.6,1.6c0.8,0.2,1.7,0.2,2.6,0"/>
	<path id="_x31_360" inkscape:connector-curvature="0" class="st2" d="M1327.8,850.9h14.6"/>
	<path id="_x31_361" inkscape:connector-curvature="0" class="st2" d="M1327.8,850.9c-4-6.3-6.4-13.8-5.2-21.2
		c0.9-7.7,4.9-14.9,4.6-22.8c-0.8-7.2-5.1-13.6-5-21c-0.2-8.7,3.6-16.8,7.4-24.5"/>
	<path id="_x31_362" inkscape:connector-curvature="0" class="st2" d="M1329.5,761.4c-6,5.8-10,13.5-11.8,21.5
		c-1.2,5.3-0.8,10.7,0.3,16c1.3,5.7,2.4,11.6,0.9,17.3c-1.8,7.3-4.5,14.6-3.5,22.2c0.6,4.7,1.9,9.3,4.1,13.4"/>
	<path id="_x31_363" inkscape:connector-curvature="0" class="st2" d="M1342.4,850.9c-1.3,1.1-1.9,3-1.3,4.6c0.6,2.1,2.9,3.6,5.1,3"
		/>
	<path id="_x31_364" inkscape:connector-curvature="0" class="st2" d="M1342.4,850.9c1.5,0.3,3.1,0.2,4.6-0.3c1.4-0.3,2.6-1,3.6-1.9
		"/>
	<path id="_x31_365" inkscape:connector-curvature="0" class="st3" d="M1327.9,844.8c2.4,2.4,6.2,2.1,9.2,1.1
		c3.8-0.9,4.7-5.1,5.1-8.5c0.5-5.2,0.2-11.2-3.6-15.2c-3.6-3.6-10.4-1.9-12.5,2.6c-2.1,4.1-1.4,8.9-1.2,13.4
		C1325.4,840.6,1326.2,843.1,1327.9,844.8L1327.9,844.8z"/>
	<path id="_x31_366" inkscape:connector-curvature="0" class="st2" d="M1342.4,850.9c2.1-6.5,4-13.3,2.9-20.1
		c-0.6-6.2-2.6-12.2-5.6-17.6c-2.4-4.2-0.3-8.8,2.2-12.4c4.2-6.6,4.1-14.8,3.8-22.3c-0.2-5.2-1.9-10.2-3.7-15.1"/>
	<path id="_x31_367" inkscape:connector-curvature="0" class="st2" d="M1324.1,822.2c2.4-4.9,8.5-8.2,13.8-5.9
		c1.8,0.5,3.2,1.7,4.6,2.8"/>
	<path id="_x31_368" inkscape:connector-curvature="0" class="st2" d="M1337.5,809.4c0.3-5-7.8-5.6-8.2-0.6c-1.1,4.9,6.8,6.8,8,1.9
		l0.2-0.6L1337.5,809.4L1337.5,809.4z"/>
	<path id="_x31_369" inkscape:connector-curvature="0" class="st2" d="M1332.4,813.5v-8.2"/>
	<path id="_x31_370" inkscape:connector-curvature="0" class="st3" d="M1327.9,798.7c2.4,2.4,6.2,2.1,9.2,1.1
		c3.8-0.9,4.7-5.1,5.1-8.5c0.5-5.2,0.2-11.2-3.6-15.2c-3.4-3.3-9.5-2.3-11.9,1.7c-2.7,4-1.9,9.1-1.8,13.7
		C1325.2,794.1,1326,796.8,1327.9,798.7L1327.9,798.7z"/>
	<path id="_x31_371" inkscape:connector-curvature="0" class="st2" d="M1325.6,800.3l0.6,0.8l0.7,0.7l0.9,0.7l0.9,0.5l2.2,0.6
		l2.3,0.3l2.3-0.2l2.1-0.5l2-0.9l1.8-1.2"/>
	<path id="_x31_372" inkscape:connector-curvature="0" class="st2" d="M1323.1,777.4c1.3-2.4,3.2-4.4,5.6-5.8
		c2.2-1.2,4.8-1.8,7.3-1.5c2,0.3,3.9,0.9,5.6,2.1c1.9,1.2,3.6,3,4,5.2"/>
	<path id="_x31_373" inkscape:connector-curvature="0" class="st2" d="M1329.5,761.4c2.5-1.6,5.7-1.2,8.3,0c2.8,1.1,5.5,2.7,7.9,4.5
		c1.3,1.1,2.4,2.2,3.5,3.5"/>
	<path id="_x31_374" inkscape:connector-curvature="0" class="st2" d="M1338.8,765.3c0-1.3-1-2.6-2.4-2.8c-0.8-0.1-1.7,0-2.3,0.6
		c-0.7,0.6-1.1,1.5-1,2.4c0,0.6,0.2,1.2,0.7,1.6c0.4,0.5,0.9,0.9,1.5,1c0.9,0.2,1.8,0,2.5-0.6c0.5-0.4,0.9-1,1-1.6
		C1338.8,765.6,1338.8,765.5,1338.8,765.3L1338.8,765.3z"/>
	<path id="_x31_375" inkscape:connector-curvature="0" class="st2" d="M1324.8,819.6h-6.8"/>
	<path id="_x31_376" inkscape:connector-curvature="0" class="st2" d="M1325.3,799.4h-7.1"/>
	<path id="_x31_377" inkscape:connector-curvature="0" class="st2" d="M1317.2,822.4h6.9"/>
	<path id="_x31_378" inkscape:connector-curvature="0" class="st2" d="M1318.6,802.3h7.6"/>
	<path id="_x31_379" inkscape:connector-curvature="0" class="st2" d="M1317.1,852.7c-3.7-7.3-5.5-15.6-4.2-23.7
		c0.7-5.5,2.9-10.7,3.5-16.2c0.1-6.2-3.5-11.9-3.3-18.1c-0.4-8.3,1.9-16.7,5.4-24.2"/>
	<path id="_x31_380" inkscape:connector-curvature="0" class="st2" d="M1309.2,808.5c3.5,1.1,6.9,2.1,10.4,3.2"/>
	<path id="_x31_381" inkscape:connector-curvature="0" class="st2" d="M1309.2,804.6l6.3,1.9"/>
	<path id="_x31_382" inkscape:connector-curvature="0" class="st2" d="M1315.5,806.5l3.6-2"/>
	<path id="_x31_383" inkscape:connector-curvature="0" class="st2" d="M1339.6,856.4c0-1.2-0.6-2.4-1.5-3.2c-0.8-0.8-2-1.2-3.1-1.1
		c-1.7,0.1-3.2,1.4-3.8,2.9c-0.4,1.3-0.2,2.7,0.6,3.8c0.8,1.1,2.2,1.9,3.6,1.8c1.7-0.1,3.3-1.3,3.8-2.9
		C1339.6,857.3,1339.6,856.9,1339.6,856.4z"/>
	<path id="_x31_384" inkscape:connector-curvature="0" class="st3" d="M1307.3,864.1h9.5v-1.5h-9.5V864.1z"/>
	<path id="_x31_385" inkscape:connector-curvature="0" class="st3" d="M1313.2,862.6v-7.8"/>
	<path id="_x31_386" inkscape:connector-curvature="0" class="st3" d="M1352.7,829.8c3.1-0.8,2.4-3.7-0.7-3.5"/>
	<path id="_x31_387" inkscape:connector-curvature="0" class="st3" d="M1349.5,819.6c4-1,1.5-4.3-1.5-4.1"/>
	<path id="_x31_388" inkscape:connector-curvature="0" class="st3" d="M1351.2,791.8c2.4,0.9,5.3-1.7,2.1-3.2
		c-0.5-0.3-1-0.5-1.6-0.6"/>
	<path id="_x31_389" inkscape:connector-curvature="0" class="st3" d="M1351.7,782.4c1.9,0.4,5.2-1.9,2-2.9
		c-0.7-0.4-1.5-0.5-2.3-0.5"/>
	<path id="_x31_390" inkscape:connector-curvature="0" class="st2" d="M1329.5,761.4l0.2-106.2"/>
	<path id="_x31_391" inkscape:connector-curvature="0" class="st2" d="M1342,763.4l-3.3-108.2"/>
	<path id="_x31_392" inkscape:connector-curvature="0" class="st3" d="M1321.6,736.7c-2.1-0.2-3.8-1.9-4.2-4
		c-0.9-3.8-1.5-7.6-1.6-11.4c-0.2-4.5-0.3-9.1,0.4-13.6c0.4-2.5,0.4-5.3,1.8-7.6c0.7-1.4,1.8-3,3.5-3c0.2,0,0.4,0,0.7-0.1"/>
	<path id="_x31_393" inkscape:connector-curvature="0" class="st2" d="M1321.6,736.7l1.4-6.5l0.7-6.6l0.4-6.6l-0.2-6.6l-0.6-6.6
		l-1.2-6.6"/>
	<path id="_x31_394" inkscape:connector-curvature="0" class="st3" d="M1321.6,736.7l-0.4,33"/>
	<path id="_x31_395" inkscape:connector-curvature="0" class="st3" d="M1334.3,723.1h2.4v-13.3h-2.4V723.1z"/>
	<path id="_x31_396" inkscape:connector-curvature="0" class="st3" d="M1346.6,358.7c0.5-5.6,1-11.1,1.6-16.7
		c0.6-4.7,1-9.5,2.1-14.2c0-0.9,1.1-2.9,1.4-1c0.9,3.1,1,6.3,1.3,9.5c0.5,4.7,0.6,9.4,0.6,14.1c0.1,3,0.2,6,0,9.1"/>
	<path id="_x31_397" inkscape:connector-curvature="0" class="st3" d="M1353.2,338.9h-4.6"/>
	<path id="_x31_398" inkscape:connector-curvature="0" class="st2" d="M1353.7,351.4h-6.4"/>
	<path id="_x31_399" inkscape:connector-curvature="0" class="st3" d="M1347.6,532.8h0.1"/>
	<path id="_x31_400" inkscape:connector-curvature="0" class="st2" d="M1347.6,532.8l-15-0.6"/>
	<path id="_x31_401" inkscape:connector-curvature="0" sodipodi:nodetypes="cccc" class="st2" d="M1338.7,655.2l3.2-70.4
		 M1342.1,580.4l10.3-228.9"/>
	<path id="_x31_402" inkscape:connector-curvature="0" sodipodi:nodetypes="cc" class="st2" d="M1348.8,351.5l-19.1,303.8"/>
	<path id="_x31_403" inkscape:connector-curvature="0" class="st2" d="M1340.1,625.7h-8.6"/>
	<path id="_x31_404" inkscape:connector-curvature="0" class="st2" d="M1343,442.4c0.1-0.5,0.3-1.1,0.7-1.5c0.3-0.3,0.5-0.6,0.8-0.9
		c0.2-0.2,0.5-0.2,0.8-0.3c0.5-0.1,1,0.2,1.4,0.5c0.6,0.4,1.1,1.1,1.4,1.8c0.1,0.1,0.1,0.2,0.1,0.4"/>
	<path id="_x31_405" inkscape:connector-curvature="0" class="st3" d="M1348,520.4l1.5-0.1l1.6-0.3l1.4-0.6l0.6-0.3l0.4-0.3l0.3-0.4
		v-0.4l-0.1-0.4l-0.3-0.4l-0.4-0.4l-0.5-0.3l-1.5-0.6l-1.7-0.2l-1.7,0.1l-1.6,0.5l-0.5,0.4l-0.4,0.5l-0.2,0.5v0.5l0.2,0.5l0.4,0.6
		l1.3,0.8l0.6,0.3L1348,520.4L1348,520.4z"/>
	<path id="_x31_406" inkscape:connector-curvature="0" class="st3" d="M1348.3,515.5l5.4-156"/>
	<path id="_x31_407" inkscape:connector-curvature="0" class="st3" d="M1340.2,583.2c-0.1,0.5,0.4,1,0.8,1.4c0.9,0.6,2,0.9,3.2,0.9
		c1.6,0.1,3.2,0.2,4.8-0.2c0.9-0.1,1.8-0.3,2.6-0.7c0.6-0.2,1.3-0.6,1.5-1.3c-0.2-0.5-0.6-1-1.1-1.2c-1.1-0.8-2.4-1-3.7-1.3
		c-1.6-0.3-3.2-0.4-4.7-0.2c-1,0.2-1.9,0.6-2.8,1.1C1340.2,582,1340.3,582.7,1340.2,583.2L1340.2,583.2z"/>
	<path id="_x31_408" inkscape:connector-curvature="0" class="st4" d="M1269.5,761.7h20.8"/>
	<path id="_x31_409" inkscape:connector-curvature="0" class="st4" d="M1269.5,752.1l-1.5,0.2l-1.4,0.7l-1.1,1.1l-0.6,1.4l-0.2,1.5
		l0.2,1.5l0.6,1.4l1.1,1.1l1.4,0.7l1.5,0.2"/>
	<path id="_x31_410" inkscape:connector-curvature="0" class="st4" d="M1290.3,761.7l1.5-0.2l1.4-0.7l1.1-1.1l0.7-1.4l0.2-1.5
		l-0.2-1.5l-0.7-1.4l-1.1-1.1l-1.4-0.7l-1.5-0.2"/>
	<path id="_x31_411" inkscape:connector-curvature="0" class="st4" d="M1264.8,724.3v67.5"/>
	<path id="_x31_412" inkscape:connector-curvature="0" class="st4" d="M1290.3,752.1h-20.8"/>
	<path id="_x31_413" inkscape:connector-curvature="0" class="st4" d="M1269.5,776h20.8"/>
	<path id="_x31_414" inkscape:connector-curvature="0" class="st4" d="M1269.5,766.3l-1.5,0.2l-1.4,0.7l-1.1,1.1l-0.6,1.4l-0.2,1.5
		l0.2,1.5l0.6,1.4l1.1,1.1l1.4,0.6l1.5,0.3"/>
	<path id="_x31_415" inkscape:connector-curvature="0" class="st4" d="M1290.3,776l1.5-0.3l1.4-0.6l1.1-1.1l0.7-1.4l0.2-1.5
		l-0.2-1.5l-0.7-1.4l-1.1-1.1l-1.4-0.7l-1.5-0.2"/>
	<path id="_x31_416" inkscape:connector-curvature="0" class="st4" d="M1290.3,766.3h-20.8"/>
	<path id="_x31_417" inkscape:connector-curvature="0" class="st4" d="M1264.8,872.4v31.2"/>
	<path id="_x31_418" inkscape:connector-curvature="0" class="st4" d="M1268.6,900.1h20.2"/>
	<path id="_x31_419" inkscape:connector-curvature="0" class="st4" d="M1288.7,900.1l1.2-0.2l1.2-0.5l0.8-0.8l0.5-1.1l0.2-1.3
		l-0.2-1.2l-0.5-1.1l-0.8-0.8l-1.2-0.6l-1.2-0.1"/>
	<path id="_x31_420" inkscape:connector-curvature="0" class="st4" d="M1268.6,892.5l-1.2,0.1l-1.1,0.6l-0.8,0.8l-0.6,1.1l-0.1,1.2
		l0.1,1.3l0.6,1.1l0.8,0.8l1.1,0.5l1.2,0.2"/>
	<path id="_x31_421" inkscape:connector-curvature="0" class="st4" d="M1288.7,892.5h-20.2"/>
</g>
<g id="g9830">
	<path id="_x32_" inkscape:connector-curvature="0" class="st3" d="M217,154.5h71.1"/>
	<path id="_x35_" inkscape:connector-curvature="0" class="st3" d="M186.7,260.4h-3h-2.9h-3h-3h-6l-3-0.1h-3l-3-0.1h-3l-3-0.1h-3
		l-3-0.1l-3-0.1l-3.2-0.1l-3-0.1l-3-0.2l-2.9-0.1l-3-0.2l-3-0.2l-3-0.2l-3-0.2l-2.9-0.2l-3-0.3l-2.9-0.2l-3-0.3L105,257l-2.9-0.3
		l-2.9-0.4l-2.9-0.3l-2.9-0.4l-2.9-0.5l-2.8-0.4l-2.8-0.5l-1.5-0.3l-1.4-0.2l-1.5-0.3l-1.4-0.3l-1.5-0.3l-1.4-0.3l-1.5-0.3l-1.4-0.3
		l-1.4-0.3l-1.4-0.3l-1.4-0.3l-1.5-0.4l-1.4-0.3l-1.4-0.4l-1.4-0.4l-1.4-0.4l-1.4-0.4l-1.5-0.5l-1.4-0.4l-1.4-0.5l-1.4-0.5l-1.5-0.5
		l-1.4-0.6l-1.5-0.5l-1.5-0.6l-1.4-0.6l-1.5-0.7l-1.5-0.7l-1.5-0.7l-0.7-0.3l-0.7-0.4l-0.7-0.4l-0.7-0.4l-0.8-0.4l-0.7-0.4l-0.7-0.4
		l-0.7-0.4l-0.8-0.4l-0.7-0.5l-0.7-0.4l-0.7-0.5l-0.7-0.4l-0.7-0.5l-0.6-0.4l-0.7-0.5l-0.6-0.5l-0.6-0.5l-0.5-0.5l-0.3-0.2l-0.3-0.3
		l-0.2-0.2l-0.3-0.3l-0.2-0.2l-0.2-0.3l-0.2-0.3l-0.2-0.2l-0.2-0.3l-0.2-0.2l-0.2-0.3l-0.1-0.3l-0.2-0.2l-0.1-0.3l-0.1-0.2l-0.1-0.3
		l-0.1-0.3l-0.1-0.2l-0.1-0.3v-0.3l-0.1-0.3v-0.2v-0.3V226v-0.3v-0.2v-0.3l0.1-0.3v-0.3l0.1-0.3v-0.3l0.1-0.3l0.1-0.3L27,223
		l0.1-0.3l0.1-0.3l0.2-0.6l0.3-0.6l0.2-0.6l0.4-0.7l0.3-0.6l0.4-0.6l0.4-0.6l0.4-0.6l0.4-0.6l0.4-0.5l0.5-0.6l0.5-0.6l0.4-0.5
		l0.5-0.6l0.6-0.5l0.5-0.6l0.5-0.5l0.5-0.6l0.6-0.5l0.5-0.5l0.6-0.5l1.2-1.1l1.3-1.1l1.3-1.1l1.3-1.1l1.2-0.9l1.3-1.1l1.2-0.9
		l1.3-1.1l1.2-0.9l1.2-0.9l1.2-0.9l1.1-0.9l1.2-0.9l1.2-0.9l1.1-0.9l1.2-0.9l1.1-0.8l1.1-0.9l1.2-0.8l1.1-0.8l1.2-0.9l1.2-0.8
		l1.1-0.8l1.2-0.7l1.2-0.8l1.3-0.8l1.2-0.7l1.3-0.7l1.2-0.8l1.3-0.7l1.3-0.7l1.3-0.6l1.4-0.7l1.3-0.7l1.4-0.6l1.3-0.6l1.4-0.7
		l1.4-0.6l1.4-0.5l1.4-0.6l1.4-0.6l1.4-0.5l1.4-0.6l1.5-0.5l1.4-0.5l1.4-0.5l1.5-0.5l1.4-0.5l1.5-0.5l1.4-0.4l1.5-0.5l1.4-0.4
		l1.5-0.4l1.5-0.4l1.4-0.4l1.5-0.4l1.5-0.4l1.4-0.4l1.5-0.3l1.5-0.4l1.5-0.3l1.4-0.3l1.5-0.4l1.5-0.3l1.5-0.3l1.5-0.3l2.9-0.6
		l2.8-0.5l2.9-0.5l2.9-0.5l2.9-0.5l3-0.4l2.9-0.4l2.9-0.4l2.9-0.4l2.9-0.4l3-0.4l2.9-0.3l2.9-0.3l3-0.4l2.9-0.3l2.9-0.3l3-0.3
		l2.9-0.3l3-0.2l2.9-0.3l2.9-0.2l3-0.3l2.9-0.2l3-0.1l2.9-0.2l2.9-0.2l3-0.1l2.9-0.1l3-0.1l2.9-0.1h3h2.9"/>
	<path id="_x36_" inkscape:connector-curvature="0" class="st3" d="M186.7,260.4h336.8"/>
	<path id="_x37_" inkscape:connector-curvature="0" class="st3" d="M819.4,258.6c83.8,0.3,168.2-5,249.9-24.7
		c54.2-12.6,107.4-29.3,159.3-49.3"/>
	<path id="_x38_" inkscape:connector-curvature="0" class="st3" d="M1112.7,136l27.1-104.1"/>
	<path id="_x39_" inkscape:connector-curvature="0" class="st3" d="M1164.3,18.3l21.1,6.6"/>
	<path id="_x31_0" inkscape:connector-curvature="0" class="st3" d="M1193.6,34.1l25.8,137.6"/>
	<path id="_x31_1" inkscape:connector-curvature="0" class="st3" d="M1164.3,18.3c-10.1-3.4-22,3.1-24.5,13.5"/>
	<path id="_x31_2" inkscape:connector-curvature="0" class="st3" d="M1193.6,34.1c-0.7-4.3-4.1-7.8-8.2-9.1"/>
	<path id="_x31_3" inkscape:connector-curvature="0" class="st2" d="M1136.6,44.5h59"/>
	<path id="_x31_4" inkscape:connector-curvature="0" class="st3" d="M1088.7,154.5c2.7,0,5.4-0.4,8-1.4c5.8-1.8,10.6-6.1,13.7-11.3
		c1.1-1.8,1.8-3.9,2.4-5.9"/>
	<path id="_x31_5" inkscape:connector-curvature="0" class="st3" d="M1219.4,171.7c0.8,4.2,3.8,8,8,9.3"/>
	<path id="_x31_6" inkscape:connector-curvature="0" class="st3" d="M1227.4,181l0.2,0.1l0.3,0.1h0.2l0.3,0.1l0.6,0.1l0.5,0.2
		l0.3,0.1l0.2,0.1l0.2,0.1l0.3,0.1l0.1,0.1l0.2,0.1h0.1v0.1l0.1,0.1v0.1h0.1v0.1v0.1l-0.1,0.1v0.1l-0.1,0.1v0.1l-0.2,0.1l-0.2,0.2
		l-0.2,0.1l-0.2,0.2l-0.2,0.1l-0.2,0.2l-0.3,0.1l-0.2,0.1l-0.3,0.1l-0.2,0.1l-0.2,0.1"/>
	<path id="_x31_7" inkscape:connector-curvature="0" class="st2" d="M37.2,209.4v28.2"/>
	<path id="_x32_2" inkscape:connector-curvature="0" class="st2" d="M862.5,258.2V154.5"/>
	<path id="_x32_3" inkscape:connector-curvature="0" class="st2" d="M97.3,171v85.1"/>
	<path id="_x32_4" inkscape:connector-curvature="0" class="st2" d="M217.7,154.5v105.9"/>
	<path id="_x32_5" inkscape:connector-curvature="0" class="st2" d="M388.8,154.5v105.9"/>
	<path id="_x33_7" inkscape:connector-curvature="0" class="st3" d="M46.4,202.4h2.4"/>
	<path id="_x33_8" inkscape:connector-curvature="0" class="st2" d="M62.1,188.9h35.2"/>
	<path id="_x34_2" inkscape:connector-curvature="0" class="st3" d="M59.9,191.1h2.2"/>
	<path id="_x34_6" inkscape:connector-curvature="0" class="st3" d="M46.4,202.4l13.5-11.3"/>
	<path id="_x35_0" inkscape:connector-curvature="0" class="st3" d="M49.4,202.4l13.3-11.3"/>
	<path id="_x35_1" inkscape:connector-curvature="0" class="st3" d="M48.8,202.4l13.3-11.3"/>
	<path id="_x35_2" inkscape:connector-curvature="0" class="st3" d="M49.4,202.4H57"/>
	<path id="_x35_3" inkscape:connector-curvature="0" class="st3" d="M62.7,191.1H72"/>
	<path id="_x35_4" inkscape:connector-curvature="0" class="st2" d="M42.4,205.1h0.9H44h0.8h0.8h0.7h0.8H48h0.7h0.7h0.7H51h0.6h0.7
		h0.7h1.4h1.3h1.4h2.6h1.4h1.4H63h0.7l0.7-0.1h0.6h0.7h0.7h0.7l0.7-0.1h0.8h0.7l0.7-0.1h0.8l0.8-0.1h0.8l0.8-0.1h0.8l0.9-0.1h0.8
		l0.9-0.1l0.9-0.1h1.1l0.9-0.1l1.1-0.1l1.1-0.1l1.1-0.1h0.5l0.6-0.1h0.5l0.6-0.1h0.5l0.6-0.1h0.5l0.6-0.1l0.6-0.1h0.6l0.5-0.1h0.6
		l0.6-0.1l0.7-0.1h0.6l0.6-0.1l0.7-0.1h0.6l0.7-0.1l0.6-0.1h0.7l0.7-0.1"/>
	<path id="_x35_6" inkscape:connector-curvature="0" class="st3" d="M57,202.4l15-11.3"/>
	<path id="_x35_7" inkscape:connector-curvature="0" class="st3" d="M58.7,202.4l14.9-11.3"/>
	<path id="_x35_8" inkscape:connector-curvature="0" class="st3" d="M73.7,191.1H76"/>
	<path id="_x36_9" inkscape:connector-curvature="0" class="st3" d="M58.7,202.4l17.2-1.9"/>
	<path id="_x37_0" inkscape:connector-curvature="0" class="st3" d="M78.8,200.3h15.3"/>
	<path id="_x37_1" inkscape:connector-curvature="0" class="st3" d="M94.1,191.1v9.2"/>
	<path id="_x37_2" inkscape:connector-curvature="0" class="st3" d="M76,191.1v9.5"/>
	<path id="_x37_3" inkscape:connector-curvature="0" class="st3" d="M78.8,200.3v-9.2"/>
	<path id="_x37_6" inkscape:connector-curvature="0" class="st3" d="M78.8,191.1h15.3"/>
	<path id="_x38_6" inkscape:connector-curvature="0" class="st2" d="M37.2,220.2h60.1"/>
	<path id="_x38_7" inkscape:connector-curvature="0" class="st2" d="M97.3,208.8l765.3-0.4"/>
	<path id="_x38_8" inkscape:connector-curvature="0" class="st2" d="M217.7,185.7l281.3-0.9"/>
	<path id="_x38_9" inkscape:connector-curvature="0" class="st2" d="M314.1,164.7h599.8"/>
	<path id="_x39_0" inkscape:connector-curvature="0" class="st2" d="M97.3,178.8l3.3-0.7l3.4-0.6l3.4-0.7l3.3-0.6l3.4-0.6l3.4-0.5
		l3.4-0.6l3.4-0.5l3.4-0.5l3.3-0.5l3.4-0.5l3.4-0.4l3.4-0.5l3.4-0.4l3.5-0.4l3.4-0.4l3.4-0.3l3.4-0.4l3.4-0.3l3.4-0.3l3.5-0.3
		l3.4-0.3l3.4-0.2l3.4-0.3l3.5-0.2l3.4-0.2l3.4-0.2l3.5-0.2l3.4-0.2l3.5-0.2l3.4-0.1l3.4-0.2l3.5-0.1l3.4-0.1l3.5-0.2l3.4-0.1
		l3.5-0.1h3.4l6.8-0.2l6.8-0.1l6.8-0.1l6.8-0.1h6.8h6.8h6.8l6.8-0.1l6.8,0.1h13.7h13.5"/>
	<path id="_x39_1" inkscape:connector-curvature="0" class="st2" d="M97.3,191.2l3.7-0.5l3.8-0.4l3.8-0.3l3.7-0.4l3.8-0.3l3.8-0.3
		l3.8-0.3l3.8-0.3l3.7-0.2l3.8-0.3l3.8-0.2l3.8-0.2l3.8-0.2l3.8-0.1l3.8-0.2l3.7-0.1l3.8-0.2l3.8-0.1l3.8-0.1l3.8-0.1h3.8l3.8-0.1
		l3.8-0.1h3.8l7.6-0.1l7.6-0.1h7.5h7.6"/>
	<path id="_x39_2" inkscape:connector-curvature="0" class="st2" d="M97.3,229.4l408.6-0.9"/>
	<path id="_x39_3" inkscape:connector-curvature="0" class="st2" d="M37.2,233l1.4,0.5l1.4,0.5l1.3,0.4l1.4,0.5l1.4,0.4l1.3,0.5
		l1.4,0.4l1.4,0.4l1.4,0.4l1.4,0.4l1.3,0.4l1.4,0.4l1.4,0.4l1.4,0.3l2.7,0.8l2.7,0.6l2.7,0.7l2.7,0.6l2.7,0.6l2.8,0.6l2.7,0.5
		l2.7,0.5l2.8,0.5l2.7,0.4l2.8,0.5l2.8,0.4l2.7,0.4l2.8,0.3l2.8,0.4l2.8,0.3l2.8,0.3l2.8,0.2l2.8,0.3l2.8,0.2l2.8,0.2l2.8,0.2
		l2.8,0.2l2.8,0.2l2.9,0.1l2.8,0.2l2.8,0.1l2.8,0.1l2.9,0.1l2.8,0.1h2.8l2.9,0.1h2.8l2.9,0.1h2.8h5.8h5.8h5.7h5.8l5.8-0.1h5.8
		l5.7-0.1h5.8l5.7-0.1h5.7h5.7"/>
	<path id="_x39_4" inkscape:connector-curvature="0" class="st2" d="M217.7,250.2h273.4"/>
	<path id="_x39_5" inkscape:connector-curvature="0" class="st2" d="M1095,153.7l2.5,20.2"/>
	<path id="_x39_6" inkscape:connector-curvature="0" class="st2" d="M996.2,154.5l11,91.8"/>
	<path id="_x39_7" inkscape:connector-curvature="0" class="st2" d="M862.5,250.2c48.2-0.1,96.2-4.4,144-10.5"/>
	<path id="_x39_8" inkscape:connector-curvature="0" class="st2" d="M901.5,227.6c34.5,0,69,0,103.5,0"/>
	<path id="_x39_9" inkscape:connector-curvature="0" class="st2" d="M901.5,164.7v84.5"/>
	<path id="_x31_00" inkscape:connector-curvature="0" class="st2" d="M913.9,164.7c60.9,0.8,122-2.4,182.8,2.5"/>
	<path id="_x31_01" inkscape:connector-curvature="0" class="st3" d="M996.2,154.5c30.7,0,61.2,3.1,91.7,6.5
		c8.5,1.1,17.1,1.8,25.6,2.8"/>
	<path id="_x31_02" inkscape:connector-curvature="0" class="st2" d="M901.5,183.4c65.7-0.2,131.4-0.5,197.1-0.7"/>
	<path id="_x31_03" inkscape:connector-curvature="0" class="st2" d="M901.5,208.4c33.7,0,67.5,0,101.2,0"/>
	<path id="_x31_04" inkscape:connector-curvature="0" class="st3" d="M893.8,186.5v21.9"/>
	<path id="_x31_05" inkscape:connector-curvature="0" class="st3" d="M893.8,186.5c-0.1-2.8-0.8-5.6-2.5-7.9c-2.2-3-5.6-5-9.3-5.4
		c-2.8-0.3-5.7,0.3-8.1,1.7c-3.6,2-6,5.7-6.5,9.7c-0.1,0.6-0.2,1.2-0.2,1.8"/>
	<path id="_x31_06" inkscape:connector-curvature="0" class="st3" d="M867.3,208.4c0.4,3,1.1,6.2,3.2,8.5c1.8,2,4.2,3.5,6.7,4.3
		c3.8,1,8,0.2,11.2-2c2.7-1.9,4.5-4.9,5.2-8.1c0.2-0.9,0.2-1.8,0.3-2.8"/>
	<path id="_x31_07" inkscape:connector-curvature="0" class="st3" d="M867.3,208.4v-21.9"/>
	<path id="_x31_08" inkscape:connector-curvature="0" class="st3" d="M883.4,184.5l-0.3-1.5l-1-1.1l-1.5-0.4l-1.5,0.4l-1.1,1.1
		l-0.4,1.5l0.4,1.5l1.1,1.1l1.5,0.3l1.5-0.3l1-1.1L883.4,184.5z"/>
	<path id="_x31_09" inkscape:connector-curvature="0" sodipodi:nodetypes="ccccc" class="st2" d="M867.5,169.8h26.8v1.8h-26.8V169.8
		z"/>
	<path id="_x31_11" inkscape:connector-curvature="0" class="st2" d="M1115.9,123.7h16.2"/>
	<path id="_x31_12" inkscape:connector-curvature="0" class="st2" d="M1132.1,129.8l1.6-0.4l1-1.1l0.4-1.6l-0.4-1.5l-1-1.2l-1.6-0.4
		"/>
	<path id="_x31_13" inkscape:connector-curvature="0" class="st2" d="M1132.1,129.8h-17.7"/>
	<path id="_x31_14" inkscape:connector-curvature="0" class="st2" d="M1095.5,157.6c4.1-1.1,8-2.9,11.2-5.6
		c4.4-3.5,7.6-8.4,9.3-13.8c0.1-0.4,0.3-0.8,0.4-1.3"/>
	<path id="_x31_15" inkscape:connector-curvature="0" class="st2" d="M1116.4,136.9l1.9-7.1"/>
	<path id="_x31_16" inkscape:connector-curvature="0" class="st2" d="M1145.8,44.5l-12.9,79.3"/>
	<path id="_x31_17" inkscape:connector-curvature="0" class="st2" d="M1132.1,129.8l-1.5,20.1"/>
	<path id="_x31_18" inkscape:connector-curvature="0" class="st2" d="M1135.1,126.7h34.1"/>
	<path id="_x31_19" inkscape:connector-curvature="0" class="st2" d="M1107.8,151h21.4"/>
	<path id="_x31_20" inkscape:connector-curvature="0" class="st2" d="M1095.6,158.5l2.5,0.4l2.6,0.3l2.6,0.4l2.5,0.3l2.6,0.4
		l2.5,0.4l5.1,0.8"/>
	<path id="_x31_21" inkscape:connector-curvature="0" class="st3" d="M1169.2,44.5v1.7"/>
	<path id="_x31_22" inkscape:connector-curvature="0" class="st2" d="M1141.9,68.3h6.4v6.5h-7.5"/>
	<path id="_x31_23" inkscape:connector-curvature="0" class="st2" d="M1157.8,44.5l-5.8,82.2"/>
	<path id="_x31_24" inkscape:connector-curvature="0" sodipodi:nodetypes="ccccccc" class="st2" d="M1159.9,46.2h9.4h1.6v2.6h-1.6
		h-9.3L1159.9,46.2z"/>
	<path id="_x31_25" inkscape:connector-curvature="0" class="st3" d="M1169.2,48.8v84.1"/>
	<path id="_x31_26" inkscape:connector-curvature="0" class="st2" d="M1002.7,208.4l97.7-11.3"/>
	<path id="_x31_27" inkscape:connector-curvature="0" class="st2" d="M1005,227.6l3-0.3l3-0.3l3-0.4l3-0.3l3-0.4l3-0.4l3-0.4l3-0.4
		l3-0.5l3-0.4l3-0.5l3-0.4l3-0.5l3-0.5l3-0.5l3-0.6l3-0.5l2.9-0.5l3-0.6l3-0.6l3-0.5l3-0.6l6-1.3l6-1.3l6.1-1.3l6-1.4l6-1.3"/>
	<path id="_x31_28" inkscape:connector-curvature="0" class="st2" d="M1049.5,207.6l-0.5-1.3l-1-0.8l-1.3-0.2"/>
	<path id="_x31_29" inkscape:connector-curvature="0" class="st2" d="M1049.5,207.6l0.3,3.5"/>
	<path id="_x31_30" inkscape:connector-curvature="0" class="st2" d="M1047.5,213.9l1.3-0.4l0.8-1.1l0.2-1.4"/>
	<path id="_x31_31" inkscape:connector-curvature="0" class="st2" d="M1047.5,213.9l-15.9,1.7"/>
	<path id="_x31_32" inkscape:connector-curvature="0" class="st2" d="M1028.8,213.1l0.4,1.3l1.1,0.9l1.4,0.2"/>
	<path id="_x31_33" inkscape:connector-curvature="0" class="st2" d="M1028.8,213.1l-0.4-3.5"/>
	<path id="_x31_34" inkscape:connector-curvature="0" class="st2" d="M1030.8,206.8l-1.3,0.5l-0.8,1.1l-0.3,1.3"/>
	<path id="_x31_35" inkscape:connector-curvature="0" class="st2" d="M1030.8,206.8l15.9-1.6"/>
	<path id="_x31_76" inkscape:connector-curvature="0" class="st3" d="M1146.9,137c1-2.1,3.7-2.4,5.7-3.1c9.1-2.1,18.5-0.8,27.7-0.2
		c8.5,0.8,16.9,2.8,25,5.3c0.8,0.2,1.5,0.5,2.3,0.7"/>
	<path id="_x31_77" inkscape:connector-curvature="0" class="st3" d="M1146.9,137c0.7,1.9,2.9,2.3,4.5,3.2c7.2,2.7,15,2.8,22.6,3
		c8.9,0.2,17.7-0.3,26.4-1.9c2.4-0.5,4.8-0.9,7.1-1.5"/>
	<path id="_x31_78" inkscape:connector-curvature="0" class="st3" d="M1101,175c-0.1,1.7,2.1,2.8,3.6,3.5c10,4.1,21,4.8,31.7,5.8
		c14,1.3,28,1.4,42.1,0.4c12.5-0.7,24.9-2.6,37.3-4.5"/>
	<path id="_x31_79" inkscape:connector-curvature="0" class="st3" d="M1101,175v-0.2v-0.1v-0.2l0.1-0.2l0.1-0.1l0.1-0.1v-0.2
		l0.1-0.1l0.1-0.1l0.2-0.1l0.2-0.2l0.2-0.2l0.3-0.2"/>
	<path id="_x31_80" inkscape:connector-curvature="0" class="st3" d="M1101.5,173.8l45.8-37.6"/>
	<path id="_x31_81" inkscape:connector-curvature="0" class="st3" d="M1207.6,139.7l8,40.5"/>
	<path id="_x31_82" inkscape:connector-curvature="0" class="st2" d="M1162.9,185.4v22.5"/>
	<path id="_x31_83" inkscape:connector-curvature="0" class="st2" d="M1103.4,172.1c-3.1,0.7-6.9,1.2-8.4,4.4
		c-0.4,2.1,1.5,3.9,3.2,4.9c5.3,2.6,11.1,3.8,16.8,5.1c12.6,2.6,25.4,3.3,38.2,4c3.3,0.1,6.6,0.1,9.8-0.2"/>
	<path id="_x31_84" inkscape:connector-curvature="0" class="st2" d="M1098.4,181.4l5.5,43.9"/>
	<path id="_x31_85" inkscape:connector-curvature="0" class="st3" d="M1122.1,220.3l11.6,7.2"/>
	<path id="_x31_86" inkscape:connector-curvature="0" class="st3" d="M1140.7,217.9l-0.4,6.3"/>
	<path id="_x31_87" inkscape:connector-curvature="0" class="st3" d="M1133.6,227.5c1.1,0.6,2.6,0.9,3.8,0.4
		c1.4-0.5,2.6-1.8,2.8-3.4c0-0.1,0-0.2,0.1-0.4"/>
	<path id="_x31_88" inkscape:connector-curvature="0" class="st3" d="M1143.7,213.9c-1.3,0.5-2.5,1.4-2.8,2.7
		c-0.1,0.4-0.2,0.8-0.2,1.3"/>
	<path id="_x31_89" inkscape:connector-curvature="0" class="st2" d="M1134.6,216.7v6.8h-7.4"/>
	<path id="_x31_90" inkscape:connector-curvature="0" class="st2" d="M1162.9,192h5.9v2h-5.9"/>
	<path id="_x31_91" inkscape:connector-curvature="0" class="st2" d="M1118.8,182.4l34.5-41.5"/>
	<path id="_x31_92" inkscape:connector-curvature="0" class="st2" d="M1133.1,165.3c3.8,0.8,7.6,1,11.5,1.5c6.5,0.7,13,1,19.5,1.2
		c7.2,0.1,14.5-0.1,21.7-0.8c6.5-0.4,13-1.4,19.4-2.2c2.3-0.4,4.7-0.7,7-1.1"/>
	<path id="_x31_93" inkscape:connector-curvature="0" class="st3" d="M1173.5,185l12.1-41.9"/>
	<path id="_x31_94" inkscape:connector-curvature="0" class="st3" d="M1205.5,175.1l4.4-0.6l4.4-0.6"/>
	<path id="_x31_95" inkscape:connector-curvature="0" class="st3" d="M1203.5,165l2,10.1"/>
	<path id="_x31_96" inkscape:connector-curvature="0" class="st2" d="M1162.9,185.4h63.9"/>
	<path id="_x31_97" inkscape:connector-curvature="0" class="st2" d="M1219.4,185.4v-13.8"/>
	<path id="_x31_98" inkscape:connector-curvature="0" class="st2" d="M1219.4,171.7h-5.6"/>
	<path id="_x31_99" inkscape:connector-curvature="0" class="st2" d="M1180.5,198.6l4.6-1.6l4.6-1.6l4.6-1.6l4.6-1.7"/>
	<path id="_x32_00" inkscape:connector-curvature="0" class="st2" d="M1180.5,198.6l1,3.2"/>
	<path id="_x32_01" inkscape:connector-curvature="0" class="st2" d="M1199,192.2l1,3"/>
	<path id="_x32_02" inkscape:connector-curvature="0" class="st2" d="M1144.7,185l8.9-17.5"/>
	<path id="_x32_03" inkscape:connector-curvature="0" class="st3" d="M663.2,151.3h298.4"/>
	<path id="_x32_04" inkscape:connector-curvature="0" class="st3" d="M663.2,154.5l-1.3,0.3l-0.9,0.9l-0.3,1.3"/>
	<path id="_x32_05" inkscape:connector-curvature="0" class="st3" d="M663.2,151.3l-1.8,0.3l-1.6,0.8l-1.3,1.3l-0.8,1.6l-0.3,1.8"/>
	<path id="_x32_06" inkscape:connector-curvature="0" class="st3" d="M657.5,157.1v0.1v0.1h0.1v0.1l0.1,0.1h0.1l0.1,0.1h0.1h0.1
		l0.2,0.1h0.1h0.2l0.1,0.1h0.2h0.2h0.1h0.2l0.1-0.1h0.2h0.1l0.2-0.1h0.1h0.1l0.1-0.1h0.1l0.1-0.1v-0.1h0.1v-0.1v-0.1"/>
	<path id="_x32_07" inkscape:connector-curvature="0" class="st3" d="M663.2,154.5h298.4"/>
	<path id="_x32_08" inkscape:connector-curvature="0" class="st3" d="M964.2,157.1l-0.3-1.3l-0.9-0.9l-1.3-0.3"/>
	<path id="_x32_09" inkscape:connector-curvature="0" class="st3" d="M967.4,157.1l-0.3-1.8l-0.8-1.6l-1.3-1.3l-1.6-0.8l-1.8-0.3"/>
	<path id="_x32_10" inkscape:connector-curvature="0" class="st3" d="M967.4,157.1v0.1l-0.1,0.1v0.1l-0.1,0.1l-0.2,0.1h-0.1
		l-0.2,0.1h-0.2h-0.2l-0.2,0.1h-0.2h-0.3l-0.2-0.1h-0.2h-0.2l-0.2-0.1h-0.1l-0.1-0.1l-0.2-0.1v-0.1l-0.1-0.1v-0.1"/>
	<path id="_x32_11" inkscape:connector-curvature="0" class="st3" d="M966.8,154.5h121.9"/>
	<path id="_x32_18" inkscape:connector-curvature="0" class="st2" d="M150,159.7v10.4"/>
	<path id="_x32_19" inkscape:connector-curvature="0" class="st2" d="M114.4,166l0.1,0.2l0.1,0.2l0.1,0.1l0.1,0.1l0.2,0.2l0.2,0.1
		l0.2,0.1l0.3,0.1l0.3,0.1l0.3,0.1h0.3l0.4,0.1h0.3h0.4h0.4h0.5h0.4h0.5h0.4l0.5-0.1h0.5l0.4-0.1l0.5-0.1l0.5-0.1l0.5-0.1l0.5-0.1
		l0.4-0.1l0.5-0.2l0.4-0.1l0.5-0.2l0.4-0.1l0.4-0.2l0.4-0.2l0.4-0.2l0.3-0.1l0.3-0.2l0.3-0.2l0.3-0.2l0.3-0.2l0.2-0.2l0.2-0.2
		l0.2-0.2l0.1-0.2l0.1-0.2l0.1-0.1v-0.2v-0.2v-0.2"/>
	<path id="_x32_20" inkscape:connector-curvature="0" class="st2" d="M185.5,258.8v1.6"/>
	<path id="_x32_21" inkscape:connector-curvature="0" class="st2" d="M185.5,258.8h-2.7h-2.6h-2.7h-2.6H172l-2.7-0.1h-2.7h-2.7h-2.6
		l-2.7-0.1h-2.7l-2.7-0.1l-2.7-0.1h-2.7l-2.7-0.1l-2.7-0.1l-2.7-0.1l-2.7-0.1l-2.6-0.1l-2.7-0.2l-2.7-0.1l-2.7-0.2l-2.6-0.2
		l-2.7-0.2l-2.7-0.2l-2.6-0.2l-2.7-0.2l-2.6-0.3l-1.4-0.1l-1.3-0.1l-1.4-0.2l-1.3-0.1l-1.4-0.2l-1.4-0.1l-1.3-0.2l-1.4-0.2"/>
	<path id="_x32_22" inkscape:connector-curvature="0" class="st2" d="M99,256.3v-1.6h0.2"/>
	<path id="_x32_23" inkscape:connector-curvature="0" class="st3" d="M84.2,243.1h6.2v1.5h-6.2V243.1z"/>
	<path id="_x32_24" inkscape:connector-curvature="0" class="st3" d="M90.3,244.5l4.3-1.8"/>
	<path id="_x32_25" inkscape:connector-curvature="0" class="st3" d="M90.3,243.1l1.9-1.7"/>
	<path id="_x32_26" inkscape:connector-curvature="0" class="st3" d="M94.2,242.9h0.1h0.1h0.1v-0.1h0.1l0.1-0.1v-0.1v-0.1h-0.1v-0.1
		l-0.1-0.1v-0.1l-0.1-0.1h-0.1l-0.1-0.1l-0.1-0.1l-0.1-0.1h-0.1l-0.1-0.1l-0.1-0.1h-0.1l-0.2-0.1h-0.1l-0.1-0.1h-0.1H93h-0.1
		l-0.1-0.1h-0.1l-0.1,0.1h-0.1h-0.1l-0.1,0.1"/>
	<path id="_x32_27" inkscape:connector-curvature="0" class="st3" d="M70.3,255.7h5.5v2.6h-5.5V255.7z"/>
	<path id="_x32_28" inkscape:connector-curvature="0" class="st3" d="M74.6,252l-0.4,3.7"/>
	<path id="_x32_29" inkscape:connector-curvature="0" class="st3" d="M72.6,255.7l0.4-4"/>
	<path id="_x32_30" inkscape:connector-curvature="0" class="st4" d="M124.1,302l-0.3-2.6l-0.8-2.6l-1.5-2.2l-1.9-2l-2.3-1.4
		l-2.6-0.9l-2.6-0.3l-2.7,0.3l-2.5,0.9l-2.3,1.4l-1.9,2l-1.5,2.2l-0.9,2.6l-0.2,2.6l0.2,2.7l0.9,2.6l1.5,2.2l1.9,2l2.3,1.4l2.5,0.9
		l2.7,0.3l2.6-0.3l2.6-0.9l2.3-1.4l1.9-2l1.5-2.2l0.8-2.6L124.1,302z"/>
	<path id="_x32_31" inkscape:connector-curvature="0" class="st2" d="M239.7,236.3l-0.2-0.9l-0.6-0.6l-0.9-0.2"/>
	<path id="_x32_32" inkscape:connector-curvature="0" class="st2" d="M239.7,236.3v5.1"/>
	<path id="_x32_33" inkscape:connector-curvature="0" class="st2" d="M237.9,243.3l0.9-0.2l0.6-0.6l0.2-0.9"/>
	<path id="_x32_34" inkscape:connector-curvature="0" class="st2" d="M237.9,243.3h-9.7"/>
	<path id="_x32_35" inkscape:connector-curvature="0" class="st2" d="M226.3,241.5l0.3,0.9l0.6,0.6l0.9,0.2"/>
	<path id="_x32_36" inkscape:connector-curvature="0" class="st2" d="M226.3,241.5v-5.1"/>
	<path id="_x32_37" inkscape:connector-curvature="0" class="st2" d="M228.2,234.6l-0.9,0.2l-0.6,0.6l-0.3,0.9"/>
	<path id="_x32_38" inkscape:connector-curvature="0" class="st2" d="M228.2,234.6h9.7"/>
	<path id="_x32_39" inkscape:connector-curvature="0" class="st2" d="M267.5,244.2h7.5v2.9h-7.5V244.2z"/>
	<path id="_x32_40" inkscape:connector-curvature="0" class="st2" d="M348.9,250.2v10.2"/>
	<path id="_x32_41" inkscape:connector-curvature="0" class="st2" d="M307.5,260.4v-10.2"/>
	<path id="_x32_42" inkscape:connector-curvature="0" class="st3" d="M293.6,260.4l1.4,1.3l1.6,0.8l1.8,0.3l1.8-0.3l1.7-0.8l1.3-1.3
		"/>
	<path id="_x32_43" inkscape:connector-curvature="0" class="st2" d="M315.5,260.4V259"/>
	<path id="_x32_44" inkscape:connector-curvature="0" class="st2" d="M317.5,257l-1.1,0.2l-0.7,0.7l-0.2,1.1"/>
	<path id="_x32_45" inkscape:connector-curvature="0" class="st2" d="M317.5,257h22.9"/>
	<path id="_x32_46" inkscape:connector-curvature="0" class="st2" d="M342.2,259L342,258l-0.7-0.7l-0.9-0.2"/>
	<path id="_x32_47" inkscape:connector-curvature="0" class="st2" d="M342.2,259v1.4"/>
	<path id="_x32_48" inkscape:connector-curvature="0" class="st3" d="M229.6,194.7c1.2,6.5,16,5.5,13.9-1.6
		C240.4,189.2,230.8,189.2,229.6,194.7z"/>
	<path id="_x32_49" inkscape:connector-curvature="0" class="st3" d="M263.5,194.6c1.4,6.2,14.7,5.8,14.2-1
		C275.2,189,264.7,188.9,263.5,194.6z"/>
	<path id="_x32_50" inkscape:connector-curvature="0" class="st3" d="M297.4,194.4c1.3,6.5,16,5.6,13.9-1.7
		C308.1,189,298.6,188.9,297.4,194.4z"/>
	<path id="_x32_51" inkscape:connector-curvature="0" class="st3" d="M331.3,194.3c1.2,6.3,15.3,5.7,14-1.4
		C342.5,188.7,332.4,188.8,331.3,194.3z"/>
	<path id="_x32_52" inkscape:connector-curvature="0" class="st3" d="M365.2,194.2c1.2,6.3,15.3,5.6,14-1.4
		C376.5,188.6,366.3,188.7,365.2,194.2z"/>
	<path id="_x32_53" inkscape:connector-curvature="0" class="st3" d="M399.2,194.1c1.2,6.3,15.3,5.6,14-1.4
		C410.5,188.5,400,188.6,399.2,194.1z"/>
	<path id="_x32_54" inkscape:connector-curvature="0" class="st3" d="M433.1,193.9c1.1,6.3,15.2,5.8,14-1.3
		C444.4,188.4,434.1,188.4,433.1,193.9z"/>
	<path id="_x32_55" inkscape:connector-curvature="0" class="st3" d="M467,193.8c1,6.6,16,5.6,13.8-1.6
		C477.7,188.3,468.1,188.4,467,193.8z"/>
	<path id="_x32_56" inkscape:connector-curvature="0" class="st3" d="M500.8,193.7c1.2,6.5,16,5.6,13.9-1.6
		C511.6,188.2,502.1,188.3,500.8,193.7z"/>
	<path id="_x32_57" inkscape:connector-curvature="0" class="st3" d="M560,193.5c1,6.5,16.1,5.6,13.8-1.6
		C570.8,188,561.3,188.1,560,193.5z"/>
	<path id="_x32_58" inkscape:connector-curvature="0" class="st3" d="M593.9,193.4c1,6.5,16,5.6,13.8-1.6
		C604.8,187.9,595,188,593.9,193.4z"/>
	<path id="_x32_59" inkscape:connector-curvature="0" class="st3" d="M627.8,193.3c1.1,6.5,16,5.5,13.8-1.6
		C638.8,187.8,628.8,187.8,627.8,193.3z"/>
	<path id="_x32_60" inkscape:connector-curvature="0" class="st3" d="M661.8,193.2c1.2,6.3,15.3,5.7,14-1.4
		C673,187.7,662.8,187.6,661.8,193.2z"/>
	<path id="_x32_61" inkscape:connector-curvature="0" class="st3" d="M695.7,193.1c1.1,6.3,15.3,5.7,14-1.4
		C706.9,187.5,696.7,187.5,695.7,193.1z"/>
	<path id="_x32_62" inkscape:connector-curvature="0" class="st3" d="M729.6,193c1.2,6.3,15.3,5.6,14-1.4
		C740.8,187.4,730.7,187.4,729.6,193z"/>
	<path id="_x32_63" inkscape:connector-curvature="0" class="st3" d="M763.4,192.9c1.4,6.3,15.3,5.6,14.1-1.4
		C774.7,187.3,764.6,187.3,763.4,192.9L763.4,192.9z"/>
	<path id="_x32_64" inkscape:connector-curvature="0" class="st3" d="M797.3,192.8c1.5,6.2,14.8,5.7,14.2-1.2
		C808.9,187.1,798.5,187.1,797.3,192.8z"/>
	<path id="_x32_65" inkscape:connector-curvature="0" class="st3" d="M831.2,192.6c1.2,6.6,16,5.6,13.9-1.6
		C842.1,187.1,832.5,187.1,831.2,192.6z"/>
	<path id="_x32_84" inkscape:connector-curvature="0" class="st3" d="M514.2,200.3l1.4-0.3l1.1-1.1l0.3-1.4"/>
	<path id="_x32_85" inkscape:connector-curvature="0" class="st3" d="M517,197.6v-13.2"/>
	<path id="_x32_86" inkscape:connector-curvature="0" class="st3" d="M517,184.4c0.2-4-3.3-7.6-7.4-7.5"/>
	<path id="_x32_87" inkscape:connector-curvature="0" class="st3" d="M509.6,176.9h-3.2"/>
	<path id="_x32_88" inkscape:connector-curvature="0" class="st3" d="M506.5,176.9c-4.1-0.2-7.6,3.4-7.5,7.5"/>
	<path id="_x32_89" inkscape:connector-curvature="0" class="st3" d="M499,184.4v13.2"/>
	<path id="_x32_90" inkscape:connector-curvature="0" class="st3" d="M499,197.6l0.3,1.4l1,1.1l1.5,0.3"/>
	<path id="_x32_91" inkscape:connector-curvature="0" class="st3" d="M501.8,200.3h12.4"/>
	<path id="_x32_92" inkscape:connector-curvature="0" class="st3" d="M506.3,179.1l0.1,0.1v0.1l0.1,0.1l0.1,0.1l0.1,0.1l0.2,0.1h0.2
		l0.2,0.1h0.2h0.2h0.2h0.2l0.2-0.1h0.2l0.1-0.1h0.2l0.1-0.1l0.1-0.1l0.1-0.1v-0.1v-0.1V179l-0.1-0.1l-0.1-0.1l-0.1-0.1l-0.2-0.1
		h-0.1l-0.2-0.1h-0.2h-0.2h-0.2h-0.2h-0.2l-0.2,0.1h-0.2l-0.2,0.1l-0.1,0.1h-0.1l-0.1,0.1v0.1L506.3,179.1z"/>
	<path id="_x32_93" inkscape:connector-curvature="0" class="st2" d="M517,184.7l41.2-0.1"/>
	<path id="_x32_94" inkscape:connector-curvature="0" class="st3" d="M573.4,200.1l1.5-0.3l0.9-1.1l0.4-1.4"/>
	<path id="_x32_95" inkscape:connector-curvature="0" class="st3" d="M576.2,197.4v-13.2"/>
	<path id="_x32_96" inkscape:connector-curvature="0" class="st3" d="M576.2,184.2c-0.1-4-3.3-7.7-7.5-7.5"/>
	<path id="_x32_97" inkscape:connector-curvature="0" class="st3" d="M568.7,176.7h-3.2"/>
	<path id="_x32_98" inkscape:connector-curvature="0" class="st3" d="M565.6,176.7c-4.1-0.2-7.4,3.5-7.5,7.5"/>
	<path id="_x32_99" inkscape:connector-curvature="0" class="st3" d="M558.1,184.2v13.2"/>
	<path id="_x33_00" inkscape:connector-curvature="0" class="st3" d="M558.1,197.4l0.4,1.4l1,1.1l1.4,0.3"/>
	<path id="_x33_01" inkscape:connector-curvature="0" class="st3" d="M561,200.1h12.4"/>
	<path id="_x33_02" inkscape:connector-curvature="0" class="st3" d="M565.5,178.9v0.1l0.1,0.1v0.1l0.1,0.1l0.2,0.1l0.1,0.1h0.2
		l0.2,0.1h0.2h0.2h0.2h0.2l0.2-0.1h0.2l0.2-0.1h0.1l0.2-0.1l0.1-0.1v-0.1l0.1-0.1v-0.1l-0.1-0.1v-0.1l-0.1-0.1l-0.2-0.1l-0.1-0.1
		h-0.2l-0.2-0.1h-0.2h-0.2h-0.2h-0.2h-0.2l-0.2,0.1H566l-0.1,0.1l-0.2,0.1h-0.1v0.1l-0.1,0.1V178.9z"/>
	<path id="_x33_03" inkscape:connector-curvature="0" class="st3" d="M641.2,199.9l1.4-0.4l1.1-0.9l0.4-1.5"/>
	<path id="_x33_04" inkscape:connector-curvature="0" class="st3" d="M644,197.1v-13.1"/>
	<path id="_x33_05" inkscape:connector-curvature="0" class="st3" d="M644,183.9c-0.1-4-3.3-7.7-7.5-7.5"/>
	<path id="_x33_06" inkscape:connector-curvature="0" class="st3" d="M636.6,176.5h-3.2"/>
	<path id="_x33_07" inkscape:connector-curvature="0" class="st3" d="M633.4,176.5c-4.2-0.2-7.3,3.5-7.5,7.5"/>
	<path id="_x33_08" inkscape:connector-curvature="0" class="st3" d="M626,183.9c0,4.4,0,8.8,0,13.1"/>
	<path id="_x33_09" inkscape:connector-curvature="0" class="st3" d="M626,197.1l0.4,1.5l1,0.9l1.4,0.4"/>
	<path id="_x33_10" inkscape:connector-curvature="0" class="st3" d="M628.8,199.9h12.4"/>
	<path id="_x33_11" inkscape:connector-curvature="0" class="st3" d="M633.3,178.7v0.1v0.1l0.1,0.1l0.1,0.1l0.2,0.1h0.1l0.2,0.1h0.2
		l0.2,0.1h0.2h0.2h0.2l0.2-0.1h0.2l0.2-0.1l0.1-0.1h0.1l0.1-0.1l0.1-0.1v-0.1v-0.1v-0.1l-0.1-0.1l-0.1-0.1l-0.1-0.1l-0.1-0.1h-0.2
		l-0.2-0.1h-0.2h-0.2h-0.2h-0.2h-0.2H634l-0.2,0.1l-0.1,0.1h-0.2l-0.1,0.1l-0.1,0.1v0.1V178.7z"/>
	<path id="_x33_12" inkscape:connector-curvature="0" class="st2" d="M576.2,184.5l49.8-0.1"/>
	<path id="_x33_13" inkscape:connector-curvature="0" class="st2" d="M644,184.3c72.8-0.2,145.7-0.5,218.5-0.7"/>
	<path id="_x33_49" inkscape:connector-curvature="0" class="st3" d="M288.1,154.5c0.6,1.1,2.3,1.2,3.5,1.5c1.3,0.1,2.6,0.3,3.9,0.3
		c1.6,0,3.3,0.1,4.9-0.1c1.6-0.2,3.2-0.3,4.6-0.9c0.3-0.1,0.8-0.3,0.7-0.7"/>
	<path id="_x33_50" inkscape:connector-curvature="0" class="st3" d="M313.7,154.5c0.5,1.2,2.3,1.1,3.5,1.5c1.3,0.1,2.6,0.3,3.9,0.3
		c2,0,3.9,0.1,5.9-0.2c1.5-0.3,3.1-0.3,4.3-1.3c0.2-0.1,0.1-0.2,0.1-0.3"/>
	<path id="_x33_51" inkscape:connector-curvature="0" class="st3" d="M305.7,154.5h8"/>
	<path id="_x33_52" inkscape:connector-curvature="0" class="st3" d="M331.3,154.5h326.8"/>
	<path id="_x33_53" inkscape:connector-curvature="0" class="st3" d="M305.7,154.5v-0.4l-0.1-0.5l-0.5-0.2h-16.3l-0.5,0.2l-0.2,0.5
		v0.4"/>
	<path id="_x33_54" inkscape:connector-curvature="0" class="st3" d="M331.3,154.5v-0.4l-0.2-0.5l-0.4-0.2h-16.4l-0.4,0.2l-0.2,0.5
		v0.4"/>
	<path id="_x33_74" inkscape:connector-curvature="0" class="st2" d="M523.2,154.5V225"/>
	<path id="_x33_75" inkscape:connector-curvature="0" class="st2" d="M680,154.5v67.6"/>
	<path id="_x34_29" inkscape:connector-curvature="0" class="st4" d="M656.4,295.8c0-6-3.9-11.8-9.6-13.9c-5.1-2-11.2-0.9-15.1,2.8
		c-5.3,4.4-6.5,12.7-3,18.5c2.9,4.7,8.5,7.9,14.1,7.3c6.9-0.4,12.8-6.3,13.5-13.1C656.4,296.9,656.4,296.3,656.4,295.8L656.4,295.8z
		"/>
	<path id="_x34_30" inkscape:connector-curvature="0" class="st4" d="M73.8,314.4l76.3-0.5"/>
	<path id="_x37_68" inkscape:connector-curvature="0" sodipodi:nodetypes="ccccc" class="st3" d="M731.1,217.6
		c-0.1,1.6,3.2,1.9,5.5,2.1c7.1,0.7,14.2,0.5,21.4,0.5c8.9,0.1,17.7-0.1,26.6-0.6c7.9-0.3,15.7-1.2,23.5-2.3"/>
	<path id="_x37_69" inkscape:connector-curvature="0" sodipodi:nodetypes="ccccccccc" class="st3" d="M731.1,217.3
		c0-0.9,1.8-2.2,3-2.7c2.8-1.3,6-1.5,9-2.1c5.2-0.5,10.4-0.6,15.6-0.5c6.5,0,13,0,19.5,0.2c6.2,0.2,12.3,0.2,18.4,1.3
		c3.4,0.5,6.8,1.1,10,2.2c0.6,0.4,1.7,0.9,1.3,1.8c-0.2,0.8-1.1,1.4-1.7,2"/>
	<path id="_x37_70" inkscape:connector-curvature="0" class="st3" d="M806.2,219.4l-35,30.8"/>
	<path id="_x37_71" inkscape:connector-curvature="0" class="st3" d="M573.5,244.7c0.1,3.3,4.6,4,7.2,5c25,5.3,50.8,4.5,76.3,5.4
		c24.4,0.3,48.9,0.3,73.3-1.2c13.7-0.8,27.4-2,41-3.7"/>
	<path id="_x37_72" inkscape:connector-curvature="0" class="st3" d="M487.5,239.5c-2.6,6,3.7,13.1,10.1,11.7
		c5.3-0.4,8.9-6.7,6.1-11.2c-3.3-4.2-10.2-3.9-14.6-1.9C488.4,238.4,487.8,238.9,487.5,239.5z"/>
	<path id="_x37_73" inkscape:connector-curvature="0" class="st3" d="M495.7,236.7c-1.7,0.4-3.5,0.8-4.7,2c-0.9,1-1.2,2.5-1.1,3.8
		c0,2.1,1,4,2.3,5.7c1.5,1.7,3.6,2.9,5.9,3"/>
	<path id="_x37_74" inkscape:connector-curvature="0" class="st3" d="M507.5,239.5l-0.2,0.3l-0.1,0.3l-0.1,0.4l-0.1,0.3l-0.1,0.4
		v0.4v0.4v0.4l0.1,0.4v0.4l0.1,0.4l0.1,0.4l0.1,0.4l0.1,0.4l0.2,0.4l0.1,0.4l0.2,0.3l0.2,0.4l0.2,0.3l0.2,0.4l0.2,0.3l0.3,0.3
		l0.2,0.3l0.3,0.3l0.2,0.3l0.3,0.2l0.3,0.2l0.3,0.3l0.3,0.2l0.4,0.2l0.3,0.2l0.3,0.1l0.4,0.2l0.3,0.1l0.4,0.1l0.4,0.1l0.3,0.1
		l0.4,0.1h0.4l0.4,0.1h0.4h0.4h0.4h0.4l0.4-0.1h0.3l0.4-0.1l0.4-0.1l0.4-0.1l0.4-0.1l0.3-0.2l0.4-0.1l0.4-0.2l0.3-0.2l0.3-0.2
		l0.4-0.3l0.3-0.2l0.3-0.2l0.3-0.3l0.2-0.3l0.3-0.3l0.2-0.3l0.3-0.3l0.2-0.3l0.1-0.4l0.2-0.3l0.1-0.4l0.1-0.3l0.1-0.4l0.1-0.4v-0.3
		l0.1-0.4v-0.4v-0.4l-0.1-0.3v-0.4l-0.1-0.4v-0.3l-0.1-0.3l-0.1-0.4l-0.1-0.3l-0.1-0.3l-0.2-0.3l-0.1-0.2l-0.2-0.3l-0.2-0.3
		l-0.2-0.2l-0.2-0.2l-0.3-0.2l-0.2-0.2l-0.3-0.2l-0.3-0.2l-0.3-0.2l-0.4-0.1l-0.3-0.2l-0.4-0.1l-0.3-0.1l-0.4-0.1l-0.4-0.1l-0.4-0.1
		l-0.5-0.1h-0.4l-0.8-0.1l-0.9-0.1H515l-0.8,0.1h-0.9l-0.4,0.1h-0.4l-0.4,0.1l-0.4,0.1l-0.4,0.1l-0.4,0.1l-0.4,0.1l-0.3,0.2
		l-0.4,0.1l-0.3,0.2l-0.3,0.2l-0.3,0.2l-0.3,0.3l-0.3,0.2l-0.2,0.3L507.5,239.5L507.5,239.5z"/>
	<path id="_x37_75" inkscape:connector-curvature="0" class="st3" d="M515.7,236.7c-1.8,0.2-3.7,0.8-4.9,2.2c-1.3,1.7-1.1,4-0.5,5.9
		c0.6,1.5,1.3,3,2.6,4.1c1.2,1.1,2.8,1.9,4.4,2.1c0.3,0.1,0.5,0.1,0.8,0"/>
	<path id="_x37_76" inkscape:connector-curvature="0" sodipodi:nodetypes="ccc" class="st3" d="M487.5,239.5
		c6.8-8.6,18.1-8.5,27.2-11.1c35.8-7.7,72.3-7,108.6-3.9"/>
	<path id="_x37_77" inkscape:connector-curvature="0" class="st2" d="M491.1,250.2c-4-0.3-8.5-0.5-11.9-3c-1.5-1.1-1.8-3.2-0.9-4.7
		c1.8-3.8,6.1-5.6,9.7-7.5c7-3.3,14.4-5.7,21.9-7.6c7-1.6,14.2-2.7,21.3-3.4c8.5-0.8,17.1-1.2,25.7-1.4c5.5,0,11-0.3,16.5-0.3"/>
	<path id="_x37_79" inkscape:connector-curvature="0" class="st3" d="M828.2,258.6h-8.8"/>
	<path id="_x37_80" inkscape:connector-curvature="0" class="st3" d="M828.2,236.9h-8.8"/>
	<path id="_x37_81" inkscape:connector-curvature="0" class="st3" d="M828.2,236.9c-0.4,1-1,1.9-1,3c-0.6,3.3-0.6,6.7-0.5,10.1
		c0.1,2.1,0.2,4.1,0.6,6.2c0.1,0.6,0.3,1.2,0.4,1.8c0.4-0.1,1.1,0.1,1.2-0.4c0.3-1.2,0.6-2.4,0.6-3.6c0.2-2.2,0.4-4.4,0.4-6.6
		c-0.2-2.9-0.2-5.9-0.8-8.8c-0.3-0.6-0.5-1.1-0.8-1.7L828.2,236.9C828.2,236.9,828.2,236.9,828.2,236.9z"/>
	<path id="_x37_82" inkscape:connector-curvature="0" class="st3" d="M820.4,236.9l-0.1-0.2l-0.1-0.3l-0.1-0.1L820,236v-0.1
		l-0.1-0.2h-0.1l-0.1-0.1l-0.1-0.1h-0.1h-0.1h-0.1l-0.1,0.1l-0.1,0.1H819l-0.1,0.2l-0.1,0.1l-0.1,0.2l-0.1,0.1l-0.1,0.3l-0.1,0.2"/>
	<path id="_x37_83" inkscape:connector-curvature="0" class="st3" d="M819.6,235.6l-1.7-0.4l-1.7-0.3l-1.7-0.3l-1.8-0.3l-1.7-0.2
		l-1.7-0.3l-1.7-0.2l-1.8-0.2l-3.5-0.4l-3.4-0.3l-3.5-0.4l-3.5-0.3"/>
	<path id="_x37_84" inkscape:connector-curvature="0" class="st2" d="M829.8,250.2h32.8"/>
	<path id="_x37_85" inkscape:connector-curvature="0" class="st2" d="M796.7,227.8l65.8-0.2"/>
	<path id="_x37_86" inkscape:connector-curvature="0" class="st3" d="M824.4,258.6h-8.8"/>
	<path id="_x37_87" inkscape:connector-curvature="0" class="st3" d="M824.4,236.9h-8.8"/>
	<path id="_x37_88" inkscape:connector-curvature="0" class="st3" d="M819,246.1h-5"/>
	<path id="_x37_89" inkscape:connector-curvature="0" class="st3" d="M819,249.5h-5"/>
	<path id="_x37_90" inkscape:connector-curvature="0" class="st3" d="M819.6,239.3h-5"/>
	<path id="_x37_91" inkscape:connector-curvature="0" class="st3" d="M820,237.6h-5"/>
	<path id="_x37_92" inkscape:connector-curvature="0" class="st3" d="M819.6,239.3l0.4-1.7"/>
	<path id="_x37_93" inkscape:connector-curvature="0" class="st3" d="M819,249.5v-3.4"/>
	<path id="_x37_94" inkscape:connector-curvature="0" class="st3" d="M824.4,236.9c-0.4,0.9-1,1.8-1.1,2.8c-0.3,2.4-0.5,4.8-0.5,7.3
		c0,2.6,0,5.3,0.4,7.9c0.1,1.1,0.5,2.2,0.8,3.3c0.4-0.4,0.9-0.8,1.3-1.3c0.6-3.1,0.8-6.2,0.7-9.3c0-2.6,0-5.3-0.4-7.8
		c-0.1-1-0.6-1.9-0.9-2.8C824.6,236.9,824.5,236.9,824.4,236.9L824.4,236.9z"/>
	<path id="_x37_96" inkscape:connector-curvature="0" class="st3" d="M819.4,256.2l-4.8-0.1"/>
	<path id="_x37_97" inkscape:connector-curvature="0" class="st3" d="M819.8,257.9l-4.8-0.1"/>
	<path id="_x37_98" inkscape:connector-curvature="0" class="st3" d="M819.4,256.2l0.4,1.7"/>
	<path id="_x37_99" inkscape:connector-curvature="0" class="st3" d="M816.6,236.9c-0.5-0.4-1.1-0.7-1.6-1.1c-0.4,1.1-1,2.2-1.1,3.4
		c-0.3,2-0.6,4-0.7,6.1c-0.1,1.8,0,3.6,0,5.4c0.2,1.9,0.3,3.8,0.6,5.7c0.2,0.8,0.4,1.6,0.6,2.3c0.5,0.3,1.1,0.6,1.6,0.8
		c0.2-0.3,0.3-0.6,0.5-0.9"/>
	<path id="_x38_00" inkscape:connector-curvature="0" class="st3" d="M489.2,248.2c8.5,9.1,22,10.3,33.6,12.2
		c68.8,5.7,138,7.9,207,6.3c28.7-0.9,57.4-2.8,85.9-6.7"/>
	<path id="_x38_01" inkscape:connector-curvature="0" class="st3" d="M815.9,235.6l-1.5-0.3L813,235l-1.5-0.3l-1.6-0.2l-1.5-0.2
		L807,234l-1.6-0.2l-1.5-0.2l-3-0.4l-3-0.3l-3-0.3l-3-0.4"/>
	<path id="_x38_02" inkscape:connector-curvature="0" class="st3" d="M818.3,258.6l0.1,0.2l0.1,0.2l0.1,0.2l0.1,0.1l0.1,0.2l0.1,0.1
		l0.1,0.1h0.1l0.1,0.1h0.1h0.1h0.1l0.1-0.1h0.1l0.1-0.1l0.1-0.1v-0.2l0.1-0.1l0.1-0.2l0.1-0.2l0.1-0.2"/>
	<path id="_x38_03" inkscape:connector-curvature="0" class="st3" d="M782,263.7h0.1h0.1h0.1v-0.1h0.1h0.1h0.1h0.1h0.1h0.2h0.1h0.1
		h0.1h0.2l0.1-0.1h0.2h0.1h0.2h0.1h0.2h0.2h0.2l0.2-0.1h0.2h0.2h0.2h0.4l0.4-0.1h0.5l0.5-0.1h0.5h0.5l0.5-0.1h0.6l0.6-0.1h0.6
		l0.6-0.1h0.6l0.6-0.1l0.6-0.1h0.7l0.6-0.1h0.7l0.7-0.1l0.7-0.1h0.7l0.7-0.1l0.7-0.1h0.7l0.7-0.1l1.6-0.1l1.6-0.2l1.6-0.1l1.6-0.2
		l1.6-0.2l1.6-0.1l1.6-0.2l1.6-0.2l0.7-0.1h0.7l0.7-0.1l0.7-0.1l0.7-0.1l0.7-0.1l0.7-0.1l0.7-0.1"/>
	<path id="_x38_04" inkscape:connector-curvature="0" class="st3" d="M736.2,213.9c-40.2,5.9-80.4,11.8-120.6,17.7"/>
	<path id="_x38_05" inkscape:connector-curvature="0" class="st3" d="M573.5,244.7c0.5-3.3,4.2-5.5,7.1-6.7c2.5-1.1,5.6-1.8,8.3-2.4
		"/>
	<path id="_x38_06" inkscape:connector-curvature="0" class="st3" d="M523.9,240.3c7.1-3.9,14.9-6.2,22.8-8c7.9-1.6,16-2.6,24-3
		c12.5-0.8,25.1-0.8,37.6,0.2"/>
	<path id="_x38_07" inkscape:connector-curvature="0" class="st3" d="M507.5,239.5l0.1-0.3l0.2-0.4l0.2-0.3l0.2-0.3l0.2-0.3l0.3-0.3
		l0.2-0.2l0.3-0.3l0.3-0.3l0.3-0.2l0.3-0.3l0.4-0.2l0.3-0.2l0.4-0.3l0.3-0.2l0.4-0.2l0.4-0.2l0.4-0.2l0.4-0.2l0.4-0.2l0.8-0.4
		l0.8-0.3l0.9-0.3l0.9-0.3l0.9-0.3l0.9-0.3l0.9-0.3l0.9-0.3l0.8-0.2l0.9-0.3l0.9-0.3l0.9-0.2l1.8-0.5l1.8-0.4l1.8-0.4l1.8-0.4
		l1.8-0.4l1.7-0.3l1.8-0.3l1.7-0.3l1.8-0.3l1.7-0.3l1.7-0.2l1.8-0.3l1.7-0.2l1.7-0.2l1.8-0.2l1.7-0.2l1.8-0.2l1.7-0.1l1.7-0.2
		l1.8-0.2l1.7-0.1l1.8-0.1l1.7-0.1l3.5-0.3l3.5-0.2l3.5-0.1l3.5-0.2l3.5-0.1h3.5l3.5-0.1h3.5h3.5h1.8h1.7h1.8l1.7,0.1h1.8l1.7,0.1
		l1.8,0.1h1.7l1.7,0.1l1.8,0.1l1.7,0.1l1.8,0.1"/>
	<path id="_x38_08" inkscape:connector-curvature="0" class="st2" d="M543.4,233.2l46.6,2.2"/>
	<path id="_x38_09" inkscape:connector-curvature="0" class="st3" d="M524.5,243.1c13.5,3.7,27.2,6.6,41.1,8.3
		c18.4,2.5,36.9,4,55.4,3.8c4.7,0.1,9.3-0.2,14-0.5"/>
	<path id="_x38_10" inkscape:connector-curvature="0" class="st3" d="M509.7,248.8c3.1,2.5,6.9,4.2,10.8,5.4
		c8.5,2.6,17.3,3.8,26,5.5c11.7,1.9,23.5,3.3,35.3,4.3c6.7,0.6,13.5,0.9,20.2,1.4c0.4,0,0.7,0,1.1,0"/>
	<path id="_x38_11" inkscape:connector-curvature="0" class="st2" d="M548.7,248.7l25-2.7"/>
	<path id="_x38_12" inkscape:connector-curvature="0" sodipodi:nodetypes="cc" class="st2" d="M573.7,246l153.5-25.4"/>
	<path id="_x38_13" inkscape:connector-curvature="0" class="st3" d="M609.2,237.4c0.3-3.3,3.6-5.4,6.7-5.8"/>
	<path id="_x38_14" inkscape:connector-curvature="0" class="st3" d="M609.2,237.4c-2.9-2.4-2.6-8.4,1.6-9.2
		c19.9-7.3,41.6-6.7,62.5-6.3c2.1,0.1,4.2,0.2,6.3,0.3"/>
	<path id="_x38_15" inkscape:connector-curvature="0" sodipodi:nodetypes="ccccc" class="st2" d="M724.9,218.9
		c-0.1,1.7,3.4,2,5.8,2.3c5.7,0.8,11.5,0.8,17.2,0.7c11.1,0.2,22.2,0,33.3-0.4c8.6-0.6,17.1-1.2,25.6-2.5"/>
	<path id="_x38_16" inkscape:connector-curvature="0" sodipodi:nodetypes="cccc" class="st2" d="M724.9,218.9
		c0.1-1.5,1.5-2.3,2.6-2.7c2.2-0.9,4.2-1.4,6.3-1.8c0.8-0.2,1.6-0.4,2.4-0.5"/>
	<path id="_x38_17" inkscape:connector-curvature="0" class="st2" d="M587.8,242.4c0.3,3.2,4.5,3.9,6.9,4.8
		c22.2,5.1,45.1,4.4,67.7,4.9c22.2,0.1,44.4-0.1,66.6-1.2c15.1-0.7,30.2-1.8,45.3-3.4"/>
	<path id="_x38_18" inkscape:connector-curvature="0" class="st2" d="M587.8,242.4c0.7-4,5.5-6.4,9.2-7.6c1.2-0.5,2.4-0.7,3.6-1.1"
		/>
	<path id="_x38_19" inkscape:connector-curvature="0" sodipodi:nodetypes="cccc" class="st2" d="M634.5,234.7
		c-0.4,4.1,8.5,5.2,16.6,6.2c21.3,2.7,42.4,1,64.2,1.5c23.4-0.1,46.7-1.5,69.9-4.4"/>
	<path id="_x38_20" inkscape:connector-curvature="0" class="st2" d="M634.5,234.7c1.5-5,8.3-6.4,12.7-7.7"/>
	<path id="_x38_21" inkscape:connector-curvature="0" class="st2" d="M680.8,227c0.4,2.2,3.5,2.4,5.4,3c15.4,2.9,31.1,2.2,46.7,2.7
		c20.3,0.2,40.6-0.8,60.7-3.3"/>
	<path id="_x38_22" inkscape:connector-curvature="0" sodipodi:nodetypes="ccc" class="st2" d="M680.8,227c0.7-2.8,4.3-4,6.7-4.9
		c0.9-0.3,3.9-1.3,4.8-1.6"/>
	<path id="_x38_23" inkscape:connector-curvature="0" class="st2" d="M534.1,215.2h2.8v5.6h-2.8V215.2z"/>
	<path id="_x38_24" inkscape:connector-curvature="0" class="st2" d="M536.1,257.5l0.4,0.1h0.3h0.4l0.3-0.1l0.4-0.1l0.3-0.1l0.3-0.1
		l0.4-0.2l0.3-0.2l0.3-0.2l0.3-0.3l0.3-0.3l0.2-0.3l0.3-0.3l0.5-0.7l0.5-0.7l0.5-0.8l0.4-0.8l0.4-0.8l0.3-0.9l0.3-0.8l0.2-0.8
		l0.2-0.7"/>
	<path id="_x38_25" inkscape:connector-curvature="0" class="st2" d="M566.2,262.4c3,0.4,5.6-1.8,7.3-4.1c1.2-1.7,2.3-3.5,2.7-5.6"
		/>
	<path id="_x38_26" inkscape:connector-curvature="0" class="st2" d="M587,264.5c3.5,0.2,6.4-2.6,8.1-5.5c0.9-1.3,1.5-2.8,1.9-4.3"
		/>
	<path id="_x38_27" inkscape:connector-curvature="0" class="st2" d="M603,265.4c1.8,0.2,3.4-0.9,4.6-2.2c1.6-2.3,2.9-4.9,3.5-7.7
		l0.1-0.4"/>
	<path id="_x38_28" inkscape:connector-curvature="0" class="st2" d="M623,266.2c2,0.2,3.8-1.2,4.7-2.9c1.6-2.5,2.5-5.5,3-8.4"/>
	<path id="_x38_29" inkscape:connector-curvature="0" class="st3" d="M607.3,232.9c-6.1,0.9-12.3,1.8-18.4,2.7"/>
	<path id="_x38_30" inkscape:connector-curvature="0" class="st2" d="M492.3,235.5c1.3-0.5,2.6-0.8,4-0.7c1.5,0,3.1,0.2,4.5,0.7
		c1.5,0.6,2.9,1.3,3.9,2.4c0.5,0.7,0.9,1.4,1.1,2.2"/>
	<path id="_x38_31" inkscape:connector-curvature="0" class="st2" d="M505.7,240.1l-1.3,2.1"/>
	<path id="_x38_32" inkscape:connector-curvature="0" class="st2" d="M505.7,240.1l1.7-0.4"/>
	<path id="_x38_33" inkscape:connector-curvature="0" class="st2" d="M504.5,242.2h2.4"/>
	<path id="_x38_34" inkscape:connector-curvature="0" class="st2" d="M510.5,236c1.2-0.8,2.7-1.3,4.1-1.5c1.7-0.2,3.4-0.1,5,0.3
		c1.3,0.3,2.6,0.9,3.8,1.6c0.9,0.7,1.9,1.3,2.4,2.4l0.2,0.2l0.1,0.2"/>
	<path id="_x38_35" inkscape:connector-curvature="0" class="st2" d="M504.1,246.4l3.9-0.1"/>
	<path id="_x38_36" inkscape:connector-curvature="0" class="st2" d="M494.3,252.5c0.8,0.5,1.7,0.8,2.7,0.7c1.3,0,2.7-0.1,3.9-0.7
		c1.3-0.5,2.5-1.2,3.5-2.3c0.7-0.4,1.2-1.2,1.5-1.9"/>
	<path id="_x38_37" inkscape:connector-curvature="0" class="st2" d="M504.1,246.4l1.8,2"/>
	<path id="_x38_38" inkscape:connector-curvature="0" class="st2" d="M505.8,248.4l3.9,0.4"/>
	<path id="_x38_39" inkscape:connector-curvature="0" class="st2" d="M516.3,252.7c1,0.5,2.1,0.4,3.1,0.4c0.8-0.2,1.6-0.4,2.3-0.8
		c1.4-0.9,2.7-1.9,3.6-3.4c0.7-1,1.2-2.2,1.4-3.5c0.1-0.6,0.1-1.2,0.1-1.8"/>
	<path id="_x38_40" inkscape:connector-curvature="0" class="st2" d="M519.9,227.8c0.3-0.1,0.7-0.2,1,0c0.3,0.1,0.7,0.2,1,0.3
		c0.2,0.2,0.5,0.2,0.7,0.4c0.2,0.2,0.4,0.5,0.7,0.6c0.2,0.2,0.3,0.4,0.5,0.6c0.1,0.2,0.3,0.4,0.5,0.6c0.1,0.1,0.1,0.1,0.1,0.2"/>
	<path id="_x38_41" inkscape:connector-curvature="0" class="st2" d="M536.7,227.7h0.2l0.3-0.1l0.2,0.1h0.3h0.2l0.3,0.1l0.2,0.1
		l0.2,0.1l0.5,0.2l0.5,0.3l0.4,0.3l0.4,0.4l0.4,0.4l0.4,0.4l0.4,0.5l0.3,0.5l0.3,0.4l0.3,0.5l0.2,0.5l0.2,0.5"/>
	<path id="_x38_42" inkscape:connector-curvature="0" sodipodi:nodetypes="cc" class="st2" d="M699.9,254.9v12.4"/>
	<path id="_x38_43" inkscape:connector-curvature="0" class="st2" d="M722,254.4v12.5"/>
	<path id="_x38_44" inkscape:connector-curvature="0" class="st2" d="M710.9,267.1v-8.4H722"/>
	<path id="_x38_45" inkscape:connector-curvature="0" sodipodi:nodetypes="cc" class="st2" d="M757.2,251.4v14.1"/>
	<path id="_x38_46" inkscape:connector-curvature="0" class="st2" d="M775.3,246.6c6.6,0.6,13.2,1.1,19.9,1.2
		c6,0.2,11.9,0.3,17.9,0.2l0.2,0"/>
	<path id="_x38_47" inkscape:connector-curvature="0" class="st2" d="M777.6,246.8v17.2"/>
	<path id="_x38_48" inkscape:connector-curvature="0" sodipodi:nodetypes="csssssc" class="st2" d="M809.6,234.4
		c-0.8,0.9-2,1.6-2.4,2.7c-0.7,1.7-1,3.7-1.2,5.5c-0.2,1.9-0.3,3.8-0.2,5.7c0.1,1.9,0.1,3.9,0.4,5.8c0.3,1.7,0.5,3.5,1.3,5.1
		c0.4,0.8,1.4,1.1,2.1,1.6"/>
	<path id="_x38_49" inkscape:connector-curvature="0" sodipodi:nodetypes="cc" class="st2" d="M672.3,242.4l61.5-20.9"/>
	<path id="_x38_50" inkscape:connector-curvature="0" class="st2" d="M708.9,242.3l49.1-20.4"/>
	<path id="_x38_51" inkscape:connector-curvature="0" sodipodi:nodetypes="cc" class="st2" d="M655.8,252.1
		c9.3-3.4,17.5-6.3,26.8-9.6"/>
	<path id="_x38_52" inkscape:connector-curvature="0" sodipodi:nodetypes="cc" class="st2" d="M693.3,252.1l24-9.7"/>
	<path id="_x38_53" inkscape:connector-curvature="0" class="st2" d="M721.6,251.4l51.6-29.6"/>
	<path id="_x38_54" inkscape:connector-curvature="0" class="st2" d="M751.5,249.7l-1,2.7"/>
	<path id="_x38_55" inkscape:connector-curvature="0" class="st2" d="M768.8,250.5v2.9h8.8"/>
	<path id="_x38_56" inkscape:connector-curvature="0" class="st4" d="M694.4,295.6c0.3-7.3-5.8-14.1-13.1-14.8
		c-5.4-0.6-11.1,1.9-14,6.5c-4.3,6.1-2.9,15.3,3,19.8c5.2,4.3,13.3,4.3,18.5,0C692.4,304.5,694.5,299.9,694.4,295.6z"/>
	<path id="_x38_57" inkscape:connector-curvature="0" class="st4" d="M603.4,310.9l114.6-0.8"/>
	<path id="path9996" inkscape:connector-curvature="0" sodipodi:nodetypes="ccc" class="st3" d="M1203.7,165.1
		c0.5-0.1,1-0.1,1.5-0.2c2.3-0.4,4.7-0.7,7-1.1"/>
	<path id="path9998" inkscape:connector-curvature="0" sodipodi:nodetypes="cc" class="st3" d="M1169.1,44.5h26.5"/>
	<path id="path10000" inkscape:connector-curvature="0" sodipodi:nodetypes="cccc" class="st3" d="M1169.3,46.2h1.6v2.6h-1.6"/>
	<path id="path7979" inkscape:connector-curvature="0" sodipodi:nodetypes="cc" class="st3" d="M740.9,219.3v-6.1"/>
	<path id="path7981" inkscape:connector-curvature="0" sodipodi:nodetypes="cc" class="st3" d="M738.9,215v3"/>
	<path id="path7985" inkscape:connector-curvature="0" sodipodi:nodetypes="csc" class="st5" d="M738.9,214.6c0,0-5.7,0.7-5.7,2.2
		c0,2,5.7,1.5,5.7,1.5"/>
</g>
<g>
	<path d="M1231.8,903.6L1231.8,903.6C1231.8,903.6,1231.8,903.7,1231.8,903.6l0,0.1c0,0,0,0,0,0c0,0,0,0,0,0.1c0,0,0,0,0,0
		c0,0,0,0,0,0c0,0,0,0,0,0c0,0,0,0,0,0c0,0,0,0,0,0.1c0,0,0,0,0,0c0,0,0,0,0,0c0,0,0,0,0,0c0,0,0,0,0,0c0,0,0,0-0.1,0c0,0,0,0-0.1,0
		c0,0,0,0,0,0c0,0,0,0,0,0c0,0,0,0,0,0l-1.4,0.6l-0.6,0.4c0,0-0.1,0-0.1,0.1l-0.7,0.3l-0.6,0.4l-0.8,0.5l-1.3,0.9l-0.6,0.5l-0.7,0.5
		l-0.6,0.5l-0.6,0.6l-1.3,1l-2.6,3.1l-0.4,0.6l-0.4,0.7l-0.4,0.7l-0.7,1.3l-0.7,1.7l-0.1,0.4c0,0.1-0.1,0.2-0.1,0.2l-0.1,0.1v0.2
		c0,0.1,0,0.1,0,0.2l-0.3,1.1v0.2c0,0.1,0,0.1,0,0.2l-0.1,0.3v0.2c0,0.1,0,0.1,0,0.2l-0.1,0.3v0.3c0,0,0,0,0,0v0l-1.6,42.4
		c0,0,0,0.1,0,0.1c0,0,0,0.1,0,0.1l-2.3,61.2c0,0,0,0,0,0s0,0,0,0l-1.5,40.2h14.3c0.4,0,0.8,0.3,0.8,0.8c0,0.4-0.3,0.8-0.8,0.8
		h-14.4l-0.7,17.7h14.3c0.4,0,0.8,0.3,0.8,0.8c0,0.4-0.3,0.8-0.8,0.8h-14.3l-0.7,17.4h14.3c0.4,0,0.8,0.3,0.8,0.8
		c0,0.4-0.3,0.8-0.8,0.8h-14.3l-0.7,18.7h14.3c0.4,0,0.8,0.3,0.8,0.8c0,0.4-0.3,0.8-0.8,0.8h-14.3l-0.3,9.2c0,1.3-0.2,3.9-1.8,5.8
		c-0.1,0.2-0.3,0.3-0.5,0.4c-0.1,0.2-0.3,0.4-0.5,0.4c-1.2,0.9-2.6,1.9-3.9,2.8c-7.2,4.5-15.6,6.8-24,6.8c-1.6,0-3.2-0.1-4.7-0.3
		c-8.8-0.9-17.3-4.5-24-10c0,0-0.1,0-0.1,0c-0.8-0.6-1.3-1.3-1.7-2.2c-0.4-0.8-0.7-1.8-0.9-2.6l-45.8-199.5
		c-78,17.7-159.9,18.2-232.7,18.3c0,0,0,0,0,0h-24.3c-5.4,5.3-9.7,10.5-12.9,15.9c-4.1,6.6-6.8,13.5-7.9,20.3l-0.6,4.3l8.1,1.3
		c0.1,0,0.1,0,0.2,0.1c0,0,0,0,0.1,0c0.1,0,0.1,0.1,0.1,0.1c0,0,0.1,0,0.1,0.1c0,0,0.1,0.1,0.1,0.2c0,0,0,0.1,0,0.1
		c0,0.1,0,0.2,0,0.3v0l-3.3,21.6c-0.1,0.4-0.4,0.6-0.7,0.6c0,0-0.1,0-0.1,0c-0.2,0-0.3-0.1-0.5-0.3l-7.4-1.1l4.9,1.5c0,0,0,0,0,0
		c0.1,0,0.1,0.1,0.2,0.1c0,0,0.1,0,0.1,0.1c0,0,0,0.1,0.1,0.1c0,0,0.1,0.1,0.1,0.1c0,0,0,0.1,0,0.1c0,0.1,0,0.1,0,0.2c0,0,0,0,0,0
		c0,0,0,0.1,0,0.1c0,0,0,0.1,0,0.1c0,0,0,0,0,0c0,0,0,0,0,0.1c0,0.1-0.1,0.1-0.1,0.2c0,0,0,0-0.1,0.1c0,0-0.1,0.1-0.1,0.1
		c0,0,0,0-0.1,0c-0.1,0-0.1,0-0.2,0.1c0,0,0,0-0.1,0l-3.1,0.2l5.9,0.8c0.1,0,0.3,0.1,0.4,0.2c0.2,0.1,0.3,0.3,0.3,0.6
		c0,0,0,0.1,0,0.1l-3.1,21.6c-0.1,0.4-0.4,0.6-0.7,0.6c0,0-0.1,0-0.1,0c-0.1,0-0.3-0.1-0.3-0.2l-7.6-1.2l-0.1,0.7c0,0,0,0,0,0
		c0,0,0,0.1,0,0.1c0,0.1,0,0.1-0.1,0.1c0,0,0,0.1-0.1,0.1c0,0-0.1,0.1-0.1,0.1c0,0-0.1,0-0.1,0c-0.1,0-0.1,0.1-0.2,0.1
		c0,0,0,0-0.1,0c-3.9,0.5-8.3,0.8-13.6,0.9c0,0,0,0,0,0H772v91h1.4l2.2-0.9c0,0,0.1,0,0.1,0c0,0,0.1,0,0.1,0l1-0.1
		c0.1,0,0.3,0,0.4,0.1l0.9,0.4c0.1,0.1,0.3,0.2,0.3,0.3l0.5,0.9c0.1,0.1,0.1,0.2,0.1,0.4v0.9c0,0.1,0,0.3-0.1,0.4l-0.5,0.9
		c-0.1,0.1-0.2,0.3-0.3,0.3l-0.9,0.4c-0.1,0-0.2,0.1-0.3,0.1h-0.1l-1-0.1c0,0-0.1,0-0.1,0c0,0-0.1,0-0.1,0l-2.2-0.9H772v3.4h1.4
		l2.2-1c0,0,0.1,0,0.1,0c0,0,0.1,0,0.1,0l1-0.1c0.2,0,0.3,0,0.4,0.1l1,0.5c0.1,0.1,0.2,0.2,0.3,0.3l0.5,0.8c0.1,0.1,0.1,0.3,0.1,0.4
		v1.1c0,0.1,0,0.3-0.1,0.4l-0.5,0.8c-0.1,0.1-0.2,0.2-0.3,0.3l-0.9,0.4c-0.1,0-0.2,0.1-0.3,0.1h-0.1l-1-0.1c0,0-0.1,0-0.1,0
		c0,0-0.1,0-0.1,0l-2.2-0.9H772v4.5l14.1,122l4.4,3.4c0,0,0,0,0,0c0.1,0.1,0.2,0.2,0.2,0.3c0,0.1,0.1,0.1,0.1,0.2l5,43.7v0.1
		c0,0.1,0,0.1,0,0.1c0,0.1,0,0.1,0,0.1c0,0,0,0.1-0.1,0.1c0,0-0.1,0.1-0.1,0.1c0,0,0,0,0,0l-3.5,3.2l6.2,53l13.1,0.8
		c0.4,0,0.7,0.4,0.7,0.8c0,0.4-0.4,0.7-0.8,0.7h0l-12.9-0.8l1.6,13.4l13.1,0.8c0.4,0,0.7,0.4,0.7,0.8c0,0.4-0.4,0.7-0.8,0.7h0
		l-12.8-0.8l1.6,14.1l13.2,0.8c0.4,0,0.7,0.4,0.7,0.8c0,0.4-0.4,0.7-0.8,0.7h0l-12.9-0.8l1.6,13.7l13,0.8c0.4,0,0.7,0.4,0.7,0.8
		c0,0.4-0.4,0.7-0.8,0.7h0l-12.8-0.8l1.3,11.5l13.1,0.8c0.4,0,0.7,0.4,0.7,0.8c0,0.4-0.4,0.7-0.7,0.7h0l-12.8-0.8l1.6,13.8l13.1,0.8
		c0.4,0,0.7,0.4,0.7,0.8c0,0.4-0.4,0.7-0.8,0.7h0l-12.8-0.8l0.5,4.1c0,0.1,0,0.1,0,0.2c0,0,0,0,0,0l1.2,9.9c0,0,0,0,0,0s0,0,0,0
		c0.1,1-0.3,2.4-2.5,3.8c-3.2,1.8-6.5,3.3-9.7,4.5c-6.4,2.6-13.3,3.9-18.5,4.7c-4.5,0.6-8.9,0.9-13.2,0.9c-0.5,0-0.9,0-1.4,0
		c-5.9-0.3-10.4-0.8-14.5-1.7c-4.3-0.9-8.2-2.5-11.8-4.7c-2.1-1.3-3.8-2.9-5.2-4.5c-0.2-0.1-0.3-0.3-0.4-0.5c-0.5-0.7-0.9-1.3-1.3-2
		v0c0,0,0,0,0,0l-120.3-241.4h-0.2l-0.7-0.1c0,0-0.1,0-0.1,0l-0.6-0.2l-1.8-0.3c-0.1,0-0.1,0-0.2-0.1l-0.8-0.4l-0.3-0.1
		c-0.1,0-0.2-0.1-0.2-0.1l-0.3-0.2c0,0-0.1-0.1-0.1-0.1l-0.2-0.2c-0.2-0.1-0.3-0.2-0.3-0.3l-0.2-0.4c0-0.1-0.1-0.2-0.1-0.3v-0.2
		c0-0.1,0-0.2,0.1-0.3l0.1-0.2c0-0.1,0.1-0.1,0.1-0.2l0.5-0.5c0,0,0.1-0.1,0.1-0.1l0.3-0.2c0.1,0,0.2-0.1,0.2-0.1l0.3-0.1l0.3-0.2
		c0,0,0.1,0,0.2,0l0.4-0.1l0.5-0.2c0.1,0,0.1,0,0.2,0l0.2,0l-61.6-123.6h-2.6c-0.1,0-0.2,0-0.3,0c0,0-0.1,0-0.1,0
		c-0.1,0-0.1-0.1-0.2-0.1c0,0,0,0,0,0c0-0.1-0.1-0.1-0.1-0.2l-5.3-10.6c0,0,0,0,0-0.1c0,0,0-0.1,0-0.1s0-0.1,0-0.1
		c0-0.1,0-0.1,0-0.1c0,0,0-0.1,0-0.1c0,0,0-0.1,0-0.1l1.4-2.4l-16.8-33.8c0,0,0,0,0,0c0-0.1,0-0.1,0-0.2c0-0.1,0-0.1,0-0.1
		c0,0,0,0,0,0v-9.4c-0.4-0.3-0.7-0.7-1.1-1c-9.9-9.3-15.7-22.5-15.8-36.1c-2.8-3.2-4.7-7.2-5.6-11.9c-2.3-2.1-5-4.5-7.1-7.4
		c-3.5-4.3-6.3-9.3-8.5-14.8c-1.7-4.2-2.8-8.9-3.3-13.9H215.6c0,0,0,0,0,0c-35.8-0.5-71.3-4.2-98.2-7.4c-25.2-3.2-54-8-77-24.1
		c-7.3-5.5-14.1-11.7-14.6-20.2c0,0,0,0,0-0.1c0,0,0,0,0-0.1c1.1-11.3,11.3-18.4,20.7-24.1c24.1-14.4,52.3-17.9,79.5-21.2
		c2.3-0.3,4.5-0.6,6.8-0.8c24-2.4,46-4.4,68-5.2c0.2-0.1,0.3-0.1,0.5,0c4.8-0.2,9.5-0.3,14.3-0.3h264.8c1.4-13.6,8.4-27.1,18.9-36.2
		c0.8-4.3,2.7-8.5,5.6-12l0-0.4c0.2-13.6,6.5-27.3,16.9-36.6v-9.4c0,0,0,0,0,0c0,0,0-0.1,0-0.2c0,0,0-0.1,0-0.1c0,0,0,0,0,0
		l16.8-33.8l-1.4-2.4c0,0,0,0,0-0.1c0,0,0-0.1,0-0.1s0-0.1,0-0.1c0,0,0-0.1,0-0.1c0,0,0-0.1,0-0.1c0,0,0-0.1,0-0.1l5.3-10.6
		c0,0,0.1-0.1,0.1-0.1c0,0,0.1-0.1,0.1-0.1c0,0,0.1-0.1,0.1-0.1c0,0,0.1-0.1,0.1-0.1c0,0,0.1,0,0.1,0c0,0,0.1,0,0.1,0h2.6l41.5-83.2
		c0,0,0,0,0,0c0-0.2,0.1-0.4,0.3-0.6l19.8-39.8l-0.8-0.2c0,0-0.1,0-0.1,0l-1-0.4c0,0-0.1,0-0.1,0l-0.7-0.4c-0.1-0.1-0.2-0.1-0.2-0.2
		l-0.3-0.4c-0.1-0.1-0.2-0.3-0.2-0.5v-0.5c0-0.2,0-0.3,0.2-0.5l0.3-0.4c0.1-0.1,0.1-0.2,0.2-0.2l0.7-0.4c0,0,0.1,0,0.1,0l1-0.4
		c0,0,0.1,0,0.1,0l3-0.6l0.4,0l114.1-228.8h-4l-42-2.2c-0.4,0-0.7-0.4-0.7-0.8V347c0-0.4,0.3-0.7,0.7-0.8l42-2.2c0,0,0,0,0,0
		c0,0,0,0,0,0h7.5l2.7-5.5c0,0,0,0,0,0c0,0,0,0,0,0c0.4-0.7,0.8-1.4,1.3-2c0-0.3,0.2-0.5,0.4-0.5c1.6-2,3.7-3.7,6.2-5.1
		c0.1-0.1,0.3-0.2,0.4-0.3c0.5-0.3,1-0.5,1.6-0.8c0.1-0.2,0.3-0.3,0.6-0.3v0c1-0.5,2.1-0.9,3.3-1.4c8.8-3,19-3.8,32-2.5
		c5.5,0.8,10.9,1.6,16,3.4c4.6,1.6,10,3.5,14.7,6.4c1.3,1,1.9,2.2,1.9,3.4c0,0,0,0,0,0s0,0,0,0l-1.2,9.9c0,0,0,0,0,0.1
		c0,0.1,0,0.1,0,0.2l-0.5,4.1l12.8-0.8c0.4,0,0.8,0.3,0.8,0.7c0,0.4-0.3,0.8-0.7,0.8l-13.1,0.8l-1.6,13.7l12.8-0.8
		c0.4,0,0.8,0.3,0.8,0.7c0,0.4-0.3,0.8-0.7,0.8l-13.1,0.8l-1.4,11.6l12.8-0.8c0.4,0,0.8,0.3,0.8,0.7c0,0.4-0.3,0.8-0.7,0.8l-13,0.8
		l-1.6,13.7l12.9-0.8c0.4,0,0.8,0.3,0.8,0.7c0,0.4-0.3,0.8-0.7,0.8l-13.2,0.8l-1.6,14.1l12.8-0.8c0.4,0,0.8,0.3,0.8,0.7
		c0,0.4-0.3,0.8-0.7,0.8L800,414l-1.6,13.4l12.9-0.8c0.4,0,0.8,0.3,0.8,0.7c0,0.4-0.3,0.8-0.7,0.8l-13.1,0.8l-6.2,53l3.5,3.2
		c0,0,0,0,0,0c0,0,0.1,0.1,0.1,0.1c0,0,0,0.1,0.1,0.1c0,0,0,0.1,0,0.1c0,0,0,0.1,0,0.2v0l-5,43.7c0,0,0,0,0,0c0,0,0,0.1,0,0.1
		c0,0.1,0,0.1-0.1,0.2c0,0,0,0-0.1,0.1c0,0-0.1,0.1-0.1,0.1c0,0,0,0,0,0l-4.4,3.3L772,655.3v4.5h1.4l2.2-1c0,0,0.1,0,0.1,0
		c0,0,0.1,0,0.1,0l1-0.1c0.2,0,0.3,0,0.4,0.1l1,0.5c0.1,0.1,0.2,0.1,0.3,0.3l0.5,0.8c0.1,0.1,0.1,0.3,0.1,0.4v1c0,0.1,0,0.3-0.1,0.4
		l-0.5,0.8c-0.1,0.1-0.2,0.2-0.3,0.3l-1,0.5c-0.1,0.1-0.2,0.1-0.4,0.1c0,0-0.1,0-0.2,0l-1-0.2c0,0,0,0-0.1,0c0,0,0,0-0.1,0l-2.2-0.9
		H772v3.4h1.4l2.2-0.9c0,0,0.1,0,0.1,0c0,0,0.1,0,0.1,0l1-0.1c0.1,0,0.3,0,0.4,0.1l0.9,0.4c0.1,0.1,0.3,0.2,0.3,0.3l0.5,0.8
		c0.1,0.1,0.1,0.3,0.1,0.4v1c0,0.1,0,0.3-0.1,0.4l-0.5,0.9c-0.1,0.1-0.2,0.3-0.3,0.3l-0.9,0.4c-0.1,0-0.2,0.1-0.3,0.1h-0.1l-1-0.1
		c0,0-0.1,0-0.1,0c0,0-0.1,0-0.1,0l-2.2-1H772v91.1h28.3c0,0,0,0,0,0h0l1.3,0c3,0.1,6.1,0.2,9.1,0.6c1,0.1,2.1,0.2,3.1,0.3
		c0,0,0,0,0.1,0c0,0,0.1,0,0.1,0c0.1,0,0.1,0,0.2,0.1c0,0,0.1,0,0.1,0.1c0,0,0.1,0.1,0.1,0.1c0,0,0,0.1,0.1,0.1c0,0,0,0.1,0,0.1
		c0,0,0,0,0,0.1l0.1,0.7l7.6-1.2c0.1-0.1,0.2-0.1,0.3-0.2c0.4,0,0.8,0.2,0.9,0.6l3.1,21.6c0,0.3-0.1,0.5-0.3,0.7
		c-0.1,0.1-0.2,0.2-0.4,0.2l-5.3,0.8l2.5,0.1l0,0c0.1,0,0.2,0,0.2,0.1c0,0,0,0,0.1,0c0.1,0,0.1,0.1,0.2,0.1c0,0,0,0,0.1,0.1
		c0,0,0,0.1,0.1,0.1c0,0.1,0.1,0.1,0.1,0.2c0,0,0,0,0,0c0,0,0,0.1,0,0.1c0,0,0,0.1,0,0.1c0,0,0,0,0,0c0,0,0,0.1,0,0.1
		c0,0,0,0.1,0,0.1c0,0,0,0.1-0.1,0.1c0,0-0.1,0.1-0.1,0.1c0,0-0.1,0-0.1,0.1c-0.1,0-0.1,0.1-0.2,0.1c0,0,0,0,0,0l-4.9,1.5l0,0.1
		l7.5-1.1c0.1-0.1,0.3-0.3,0.5-0.3c0.4-0.1,0.8,0.2,0.9,0.6l3.3,21.6v0c0,0.1,0,0.2,0,0.3c0,0,0,0.1,0,0.1c0,0.1,0,0.1-0.1,0.2
		c0,0,0,0-0.1,0.1c0,0-0.1,0.1-0.1,0.1c0,0,0,0-0.1,0c-0.1,0-0.1,0.1-0.2,0.1l-8.1,1.3l0.6,4.3c1.1,6.1,3.1,11.8,5.9,16.8
		c2.7,5,5.5,9,8.5,12.5c2.1,2.5,4.4,4.9,6.4,6.9h19.2c1.7,0,3.4,0,5.1,0h0.1c33.2,0.1,66.8,0.2,100.6,1.8c0.1,0,0.2,0,0.3,0
		c43.3,2,86.8,6.4,129.7,16.1c0,0,0,0,0,0c0.2,0,0.4,0,0.6,0.1c0.5,0.1,0.9,0.2,1.4,0.3l45.8-199.5c0,0,0,0,0,0v0l0.8-2.4
		c0,0,0-0.1,0.1-0.1l0.6-1.2c0-0.1,0.1-0.1,0.1-0.2l0.8-0.8c0,0,0.1-0.1,0.2-0.1l0.6-0.5c5.4-4.4,12.2-7.5,19.6-9.1
		c7.2-1.4,14.5-1,21.1,1c5.5,1.6,10.8,4.3,15.4,7.9c0.1,0,0.3,0.1,0.4,0.2l1.1,1.2c0.1,0.1,0.1,0.1,0.1,0.2l0.6,1.5c0,0,0,0.1,0,0.1
		l0.4,1.7c0,0.1,0,0.1,0,0.1l0.1,1.6v0l0.3,9.1h14.3c0.4,0,0.8,0.3,0.8,0.8c0,0.4-0.3,0.8-0.8,0.8h-14.3l0.7,18.8h14.3
		c0.4,0,0.8,0.3,0.8,0.8c0,0.4-0.3,0.8-0.8,0.8h-14.3l0.7,17.4h14.3c0.4,0,0.8,0.3,0.8,0.8c0,0.4-0.3,0.8-0.8,0.8h-14.3l0.7,17.7
		h14.4c0.4,0,0.8,0.3,0.8,0.8c0,0.4-0.3,0.8-0.8,0.8h-14.3l1.5,40.2c0,0,0,0,0,0s0,0,0,0l2.3,61.1c0,0,0,0.1,0,0.1c0,0,0,0.1,0,0.1
		l1.6,42.5c0.6,6.5,5.2,12.6,12.6,17l2.5,1.2c0,0,0,0,0,0c0,0,0.1,0,0.1,0c0,0,0,0,0,0c0,0,0,0,0.1,0c0,0,0,0,0,0c0,0,0,0,0,0
		c0,0,0,0,0,0.1c0,0,0,0,0,0.1s0,0,0,0c0,0,0,0,0,0c0,0,0,0,0,0c0,0,0,0,0,0.1c0,0,0,0,0,0C1231.8,903.5,1231.8,903.5,1231.8,903.6
		C1231.8,903.6,1231.8,903.6,1231.8,903.6z"/>
</g>
<text transform="matrix(1 0 0 1 -1111.3491 554.2857)" style="font-family:'ArialMT'; font-size:40px;">Kaboldy Pter</text>
<text transform="matrix(1 0 0 1 -1102.4819 594.2857)" style="font-family:'ArialMT'; font-size:40px;">2012. 06. 07.</text>
</svg>
